<svg version="1.1" id="Layer_1" xmlns="http://www.w3.org/2000/svg" xmlns:xlink="http://www.w3.org/1999/xlink" x="0px" y="0px" viewBox="0 0 1024 429" enable-background="new 0 0 1024 429" xml:space="preserve">

<path fill="#E8E8E8" opacity="1.000000" stroke="none" d="
M100.977211,303.633301 
	C115.715477,308.396027 129.976044,313.320068 144.400040,317.706726 
	C172.818970,326.349609 201.737595,332.909149 230.973846,338.188843 
	C257.162842,342.918213 283.498077,346.480804 309.973969,348.977692 
	C346.484680,352.420929 383.092438,353.042664 419.738464,352.144073 
	C448.535797,351.437897 477.165955,348.827209 505.760345,345.391510 
	C536.797058,341.662415 567.458557,335.914673 597.841248,328.788269 
	C626.079712,322.164856 653.836121,313.753876 680.943359,303.328735 
	C682.336548,302.792938 683.786438,302.404785 685.594116,301.894653 
	C686.122803,302.015411 686.267456,302.189423 686.182678,302.613525 
	C645.838013,326.056061 603.394775,343.765747 558.992554,356.898285 
	C528.698853,365.857971 497.891571,372.492249 466.579742,376.476105 
	C425.502808,381.702362 384.313324,382.845093 342.976379,379.152191 
	C306.646332,375.906586 270.811035,370.040131 235.657242,360.399933 
	C194.449478,349.099548 154.727020,333.846161 116.795425,314.072937 
	C111.349014,311.233795 105.942528,308.318024 100.268646,305.202698 
	C99.892166,304.373596 100.076767,303.901642 100.977211,303.633301 
z"></path>
<path fill="#EAEAEA" opacity="1.000000" stroke="none" d="
M470.794189,233.000580 
	C470.787964,260.992462 470.663452,288.485321 470.877136,315.975525 
	C470.907867,319.928772 469.483887,320.748566 466.142090,320.837494 
	C459.816956,321.005768 453.479218,321.194183 447.183105,321.771088 
	C443.516357,322.107086 442.765076,320.802460 442.789856,317.388123 
	C442.960541,293.896210 442.966125,270.402802 442.906860,246.910172 
	C442.902283,245.099915 444.154297,242.080734 441.891754,241.600632 
	C438.584808,240.898926 434.930084,241.187119 431.551208,241.780350 
	C430.121674,242.031342 430.888611,244.458160 430.886414,245.872757 
	C430.849792,269.532593 430.766724,293.193573 430.986420,316.851532 
	C431.024139,320.910675 430.191345,322.362671 425.905640,322.112213 
	C419.764893,321.753387 413.570587,321.881622 407.423218,322.228485 
	C403.778534,322.434052 403.071289,321.111633 403.079041,317.737000 
	C403.168365,278.915070 403.094330,240.092819 403.088562,201.270645 
	C403.085663,181.609634 403.215942,161.948059 403.080872,142.288147 
	C403.056641,138.765198 403.596619,137.207870 407.632690,137.498138 
	C413.602173,137.927460 419.631531,137.889267 425.615845,137.618195 
	C429.608063,137.437363 431.006500,138.447495 430.945007,142.784988 
	C430.678223,161.608917 430.962097,180.440445 430.719055,199.265015 
	C430.665558,203.408707 431.666504,204.651154 435.871765,204.412323 
	C442.721375,204.023300 442.741821,204.310593 442.669098,197.580093 
	C442.471161,179.254578 442.383392,160.926590 441.976074,142.605713 
	C441.891235,138.789886 442.875641,137.695755 446.657562,138.075760 
	C452.780518,138.691010 458.950317,138.966583 465.105865,139.075974 
	C468.049591,139.128296 469.029022,139.915939 469.077362,143.059418 
	C469.535736,172.874863 470.187958,202.687347 470.794189,233.000580 
z"></path>
<path fill="#EAEAEA" opacity="1.000000" stroke="none" d="
M839.524475,213.170074 
	C840.796631,201.773346 846.270508,192.543411 853.674438,183.889130 
	C853.353577,183.501144 854.181152,182.443481 852.922607,182.679367 
	C831.916260,185.949326 813.946167,195.064026 797.713013,208.781311 
	C796.151978,205.729385 797.909241,203.175186 799.502441,200.729309 
	C809.463257,185.437820 822.842957,174.219498 839.508057,167.304092 
	C837.052124,167.783585 834.366943,168.404465 831.658813,168.908325 
	C828.910767,169.419632 826.254883,170.622543 823.016357,169.920029 
	C822.476196,169.654434 822.276978,169.514297 821.895142,169.056000 
	C821.856628,166.367096 823.825195,165.506622 825.392883,164.338287 
	C831.458679,159.817856 838.122192,156.515640 845.753967,154.386124 
	C849.948853,153.751236 854.273987,150.626923 857.527588,156.240662 
	C858.063110,156.828308 858.311584,156.854919 858.685486,156.283234 
	C856.238647,141.209946 860.904724,129.630539 874.134277,121.852562 
	C881.546082,117.495026 888.367615,112.273987 896.282410,106.038269 
	C894.024048,118.145103 893.936096,129.422714 886.558777,139.015259 
	C886.063416,139.295746 885.858704,139.400116 885.410889,139.260178 
	C886.532959,134.703049 887.898254,130.390198 889.299438,125.699280 
	C889.000061,125.086739 889.964661,124.194687 888.640076,124.158981 
	C885.920959,126.360550 883.672485,129.142059 880.847717,131.086502 
	C872.083008,137.119705 868.976929,145.671417 868.882263,156.146225 
	C872.831848,153.370468 876.552673,150.755417 880.583008,147.993057 
	C881.223511,147.762192 881.554504,147.678665 882.389771,147.684143 
	C881.694153,149.706390 880.494263,151.639648 878.946411,154.133652 
	C883.564209,153.006119 886.987976,150.578903 889.447021,147.543716 
	C891.848816,144.579224 893.286682,145.644562 895.358765,147.345673 
	C900.463196,151.536331 905.981873,155.220718 910.907104,160.626816 
	C911.018921,158.496323 911.093384,157.076874 911.219604,154.671234 
	C917.572388,161.799500 923.329651,168.368652 927.367371,176.531113 
	C925.314758,177.218063 924.395935,175.856445 922.813354,175.573944 
	C922.139465,175.590073 921.796387,175.701538 921.638611,175.988037 
	C924.891602,179.361359 927.796814,182.708389 931.049011,185.675140 
	C935.962463,190.157242 937.898560,195.544724 936.878357,202.496063 
	C934.589722,205.000229 932.536072,203.651093 930.429749,202.680527 
	C927.467285,201.315506 925.772339,198.511246 922.976562,196.410736 
	C913.590942,186.837921 902.347290,182.161133 889.535706,180.896149 
	C888.164856,180.760788 885.353333,179.796814 887.989624,183.358154 
	C890.642212,188.340378 891.588440,193.447769 892.979919,198.409622 
	C895.191772,206.296356 899.063416,212.834198 907.540344,216.049194 
	C909.008057,217.128296 909.827698,218.337723 911.373047,218.868835 
	C925.084045,223.581146 935.663757,233.102234 946.564026,242.086609 
	C949.368286,244.398010 952.527161,246.389053 954.791382,249.775452 
	C955.221802,250.215149 955.427673,250.424118 955.630981,250.635651 
	C955.855835,250.869598 955.796814,250.805084 955.237305,250.218887 
	C951.677124,246.136475 950.123474,241.206497 947.088501,236.777985 
	C946.459900,236.027084 946.040588,235.530655 945.430176,234.416519 
	C946.512207,232.097595 944.742554,231.207626 944.056091,230.181458 
	C940.550598,224.941376 936.894531,219.802292 933.336731,214.596771 
	C932.792358,213.800323 931.636475,211.669357 933.119751,212.135300 
	C937.636414,213.554230 937.367065,209.317139 939.707275,207.391525 
	C946.744873,216.924347 953.687988,226.390717 960.697021,235.808044 
	C970.193359,248.567459 978.641174,262.089722 988.769287,274.386108 
	C989.815002,275.655701 990.236816,276.831268 989.703735,278.464081 
	C987.479919,285.276154 986.446350,292.334137 985.301819,299.724365 
	C981.533813,300.579346 980.620728,297.428345 978.594482,295.277740 
	C979.682739,287.777527 975.458069,282.529663 972.138855,276.597717 
	C972.212769,275.985565 972.271851,275.745636 972.521118,275.189514 
	C974.311279,273.751862 975.910522,274.291077 977.799377,275.044250 
	C978.602356,275.638428 977.935364,275.031311 978.429749,275.478455 
	C978.643555,275.671783 978.869873,275.848877 979.075378,276.046661 
	C978.960083,275.881744 978.797913,275.766602 978.397095,275.434265 
	C975.162598,273.506866 972.385559,271.346375 968.861633,270.747986 
	C964.301208,269.973633 963.019470,270.944244 962.460083,275.602234 
	C962.342102,276.584900 962.252380,277.568176 961.831665,278.851990 
	C958.400024,287.053345 959.526917,289.673431 967.568542,291.590332 
	C971.636475,292.560059 971.853699,295.103851 971.176514,298.721985 
	C969.745728,304.181915 968.633545,309.444122 962.235718,311.197388 
	C959.123779,309.914978 956.961670,307.920349 954.100952,306.009796 
	C953.334717,305.897552 953.162842,305.849792 952.746704,305.691284 
	C952.181946,305.411530 951.865845,305.234802 951.309692,304.913818 
	C950.908081,304.671234 950.749939,304.566437 950.368042,304.280273 
	C949.863892,303.831573 949.600586,303.548340 949.170166,303.022858 
	C948.634460,302.342072 948.303101,301.871460 947.696533,301.265350 
	C947.052063,300.727386 946.603882,300.397430 945.865845,299.998718 
	C945.309753,299.665253 945.020752,299.438019 944.585876,298.969421 
	C944.221680,298.463989 944.042358,298.159485 943.751709,297.621338 
	C943.548340,297.243591 943.471924,297.090332 943.280823,296.440613 
	C942.564453,292.416626 939.228882,291.111328 937.102173,288.400330 
	C931.035828,281.659271 924.503723,275.904877 917.644226,270.496613 
	C915.204956,268.573303 912.502197,266.651794 913.816040,262.559143 
	C914.813904,262.230957 915.546875,262.152435 916.649048,262.066345 
	C922.014099,260.678436 925.804626,264.289032 931.301697,265.484863 
	C926.082214,258.457214 921.337891,252.085556 915.806335,246.378021 
	C908.095398,238.421921 900.264038,230.576706 891.862305,222.860992 
	C891.208923,222.208435 890.772461,221.790344 890.497070,220.945618 
	C890.367371,220.371124 890.339478,220.209885 890.339478,220.209885 
	C889.772949,220.472931 889.805786,220.568787 890.482422,220.774323 
	C890.661194,221.686874 891.109131,222.110367 891.781067,222.796509 
	C896.600159,229.268631 899.442322,236.420822 902.691589,243.332199 
	C904.295288,246.743332 902.954346,248.635941 899.167236,248.228928 
	C888.756470,247.110077 878.212646,246.531738 868.282959,242.713303 
	C854.462830,237.398758 846.605103,226.003311 846.425049,211.195908 
	C846.409119,209.885651 846.675293,208.565720 846.377563,207.294098 
	C843.975403,209.103058 843.668457,213.123428 839.524475,213.170074 
z"></path>
<path fill="#EBEBEB" opacity="1.000000" stroke="none" d="
M354.735474,194.196655 
	C359.630615,176.159225 364.369354,158.381989 368.949005,140.563873 
	C369.424927,138.712219 370.137970,138.094330 371.904816,138.073486 
	C379.900330,137.979202 387.897614,137.898651 395.888794,137.642410 
	C398.948914,137.544281 398.966980,138.563934 398.212280,141.162323 
	C391.740631,163.443787 385.784729,185.882248 378.894257,208.031006 
	C376.398315,216.053940 378.862183,223.064758 380.382965,230.387680 
	C386.485809,259.774261 392.721222,289.133942 399.096527,318.462494 
	C399.828674,321.830505 398.943115,322.292633 395.931793,322.206360 
	C388.275208,321.987061 380.600128,321.805237 372.953583,322.120850 
	C369.595123,322.259460 368.709106,320.708649 368.206482,318.097137 
	C363.846130,295.441193 359.484802,272.785400 355.126343,250.129105 
	C354.663666,247.723907 354.217560,245.315506 352.912720,242.934662 
	C352.912720,248.573349 352.879669,254.212250 352.918762,259.850677 
	C353.049377,278.671265 353.042542,297.495422 353.469025,316.309570 
	C353.573303,320.910583 352.089172,322.066071 347.861145,321.644409 
	C341.569336,321.016937 335.245911,320.636566 328.926575,320.390625 
	C326.511353,320.296570 326.016541,319.465942 325.935822,317.137238 
	C323.948975,259.827942 325.392059,202.547989 327.147186,145.266235 
	C327.252136,141.840012 328.490479,140.635483 331.684937,140.467026 
	C338.168701,140.125107 344.657928,139.748917 351.114685,139.090149 
	C354.435394,138.751343 354.945160,140.033508 354.838257,142.992844 
	C354.236938,159.636337 353.823883,176.286652 353.328979,193.367157 
	C353.775024,194.555786 353.862488,195.411789 353.965759,196.263596 
	C354.020660,195.615479 354.155884,194.992447 354.735474,194.196655 
z"></path>
<path fill="#EBEBEB" opacity="1.000000" stroke="none" d="
M317.901001,276.999390 
	C317.873962,291.651184 318.618164,305.735229 321.806183,320.219757 
	C312.963135,319.549774 304.359070,318.904236 295.756287,318.242218 
	C293.185028,318.044373 293.333801,315.956635 292.996552,314.202637 
	C290.404694,300.721497 290.575256,287.050568 290.124573,273.417267 
	C289.888672,266.281647 290.767639,259.104828 289.213959,252.005966 
	C288.763092,249.946136 287.906281,248.246140 286.450623,246.841812 
	C284.879944,245.326492 282.691162,244.991226 280.866058,245.564056 
	C279.197083,246.087891 280.049347,248.160309 280.032806,249.522705 
	C279.776337,270.676727 280.162445,291.825348 280.918945,312.963989 
	C281.038177,316.295959 280.210358,317.343292 276.840454,316.896790 
	C270.250702,316.023682 263.629181,315.293182 256.997406,314.876190 
	C253.815582,314.676117 253.776001,312.962982 253.688217,310.610474 
	C252.874390,288.799591 252.938385,266.980896 252.917114,245.160828 
	C252.889343,216.669281 254.660889,188.249252 256.081146,159.813721 
	C256.642517,148.574188 256.604645,148.531830 267.527283,147.095184 
	C277.093384,145.836975 286.668854,144.646667 296.248413,143.494949 
	C306.222534,142.295792 312.905853,146.422180 316.282745,155.970779 
	C317.216980,158.612488 318.062592,161.391541 318.286560,164.161102 
	C319.683929,181.441406 320.232391,198.732361 315.784607,215.703354 
	C314.330872,221.250290 311.237183,226.014114 305.895752,229.225220 
	C313.708984,234.576279 315.845154,242.598831 316.918213,251.051895 
	C317.990051,259.495056 317.794556,268.007965 317.901001,276.999390 
z"></path>
<path fill="#EAEAEA" opacity="1.000000" stroke="none" d="
M478.050690,284.841370 
	C477.739990,247.239151 477.424286,210.114380 477.138245,172.989380 
	C477.099579,167.973053 478.001709,163.057739 479.245941,158.224380 
	C482.310608,146.319473 489.877197,140.376953 502.242096,140.124115 
	C509.782166,139.969940 517.210876,140.765121 524.002625,144.293045 
	C535.577881,150.305740 539.351135,161.171768 540.966431,173.029251 
	C543.196167,189.396271 542.830688,205.917007 543.259460,222.383972 
	C543.792542,242.855621 544.345886,263.340454 542.852844,283.789703 
	C541.999817,295.472534 539.007263,306.436188 529.182373,314.111603 
	C513.356628,326.474976 488.356567,320.738037 481.696899,303.279663 
	C479.493286,297.502869 478.367126,291.488647 478.050690,284.841370 
z"></path>
<path fill="#E7E7E7" opacity="1.000000" stroke="none" d="
M127.898117,168.289307 
	C133.978592,163.448441 141.138626,161.330887 147.897537,158.457489 
	C181.798370,144.045349 216.157104,130.850204 251.587021,120.615036 
	C270.572662,115.130379 289.782288,110.595459 309.327576,107.631447 
	C311.494720,107.302811 314.143402,105.073547 316.330688,108.514969 
	C317.353912,110.124863 318.308899,107.991257 318.511047,107.171761 
	C321.276794,95.960159 330.553131,97.994240 338.380585,96.832405 
	C338.554901,97.549438 338.756989,97.886490 338.681030,98.140388 
	C336.695068,104.780930 336.688293,104.756653 343.545197,104.213036 
	C348.855194,103.792053 354.167542,103.210495 359.484406,103.143761 
	C362.365143,103.107590 363.804169,102.259636 364.074707,99.382553 
	C364.423279,95.675453 366.344147,93.774925 370.264008,93.891273 
	C372.238037,93.949867 374.222565,93.379372 376.212555,93.227585 
	C382.286926,92.764244 382.342346,92.792831 381.972107,98.906624 
	C381.829437,101.262947 382.098511,102.471352 385.084686,102.302872 
	C391.565796,101.937210 398.078552,101.908493 404.570709,102.063995 
	C407.469757,102.133446 408.525696,101.149857 408.111359,98.408615 
	C407.297882,93.026825 409.785400,91.230026 414.858826,92.022514 
	C416.160065,92.225777 417.540344,92.203926 418.849274,92.026733 
	C423.440155,91.405273 426.210205,92.678482 426.099274,97.960930 
	C426.040405,100.763206 427.327728,102.235512 430.711090,102.110725 
	C436.859009,101.883987 443.040039,102.177582 449.189728,102.545921 
	C451.910767,102.708893 452.489380,102.031563 451.552643,99.541336 
	C451.093689,98.321205 451.207031,96.894669 450.815033,95.638435 
	C450.200348,93.668785 450.738037,92.828751 452.832428,93.011475 
	C457.139069,93.387215 461.474243,93.546944 465.748779,94.145027 
	C469.077728,94.610802 469.270996,97.921669 469.981140,100.284180 
	C470.790222,102.975883 472.028748,104.011742 474.840790,103.967690 
	C482.145996,103.853249 489.367737,105.056999 496.562378,105.875450 
	C496.738342,105.440247 497.010223,105.110680 496.938507,104.895828 
	C493.980255,96.035919 493.969635,96.100769 503.038849,97.057030 
	C507.844543,97.563736 512.211975,98.362259 513.714783,104.018051 
	C514.495117,106.955002 515.367920,108.669441 519.858276,108.435516 
	C526.127075,108.108940 532.581238,110.299438 538.879395,111.746490 
	C579.034546,120.972450 617.988953,133.994537 656.270386,149.116074 
	C675.690796,156.787323 694.826050,165.101486 713.706848,174.818848 
	C714.108276,175.293442 714.225098,175.570786 714.141113,176.252411 
	C688.500488,166.151077 662.534790,157.123199 636.164917,149.275589 
	C602.894043,139.374237 569.180298,131.344131 534.864624,125.961678 
	C530.643738,125.299622 526.402222,124.769386 522.154846,124.175919 
	C522.084900,124.690353 521.946716,125.013550 522.019226,125.279259 
	C522.843567,128.300766 525.952332,131.840057 524.523315,134.009109 
	C522.880493,136.502838 518.813904,133.436417 515.716370,133.937042 
	C514.107666,134.197037 512.394348,133.869049 510.733643,133.738892 
	C502.758942,133.113953 502.649078,133.130661 500.901672,125.380562 
	C500.342712,122.901436 499.418365,121.751259 496.755035,121.581512 
	C490.948914,121.211456 485.136475,120.696655 479.380859,119.865578 
	C475.788452,119.346863 475.507141,120.825401 476.077667,123.677475 
	C477.575409,131.164597 477.530029,131.171753 469.863037,130.511169 
	C468.867249,130.425400 467.869568,130.353333 466.871277,130.306580 
	C457.423828,129.864090 457.243622,129.902878 455.429688,121.030884 
	C454.900757,118.443840 453.971863,117.998978 451.646851,117.965347 
	C444.819702,117.866608 437.991516,117.585739 431.174133,117.195312 
	C428.802216,117.059471 428.075928,117.302475 428.480286,120.084930 
	C429.720337,128.617203 429.544617,128.642715 420.997223,128.580353 
	C419.997253,128.573059 418.997314,128.565704 417.997345,128.558945 
	C409.063263,128.498566 408.940521,128.506775 408.350159,119.640244 
	C408.191162,117.252640 407.315094,117.019379 405.333618,117.105530 
	C397.842682,117.431183 390.346008,117.740623 382.850159,117.775887 
	C380.181915,117.788437 380.076294,119.048988 379.923492,121.105461 
	C379.339172,128.970581 379.268616,128.965668 371.254181,129.005051 
	C370.254211,129.009964 369.254150,129.001923 368.254242,129.012192 
	C357.991394,129.117538 357.991394,129.118240 359.939667,118.873878 
	C351.063019,119.550323 342.310516,120.212791 333.558929,120.886955 
	C330.860229,121.094849 331.142487,123.474861 331.003204,125.037018 
	C330.514709,130.516251 327.876801,132.773575 322.327209,132.139313 
	C320.077057,131.882141 317.719330,132.711487 315.398651,132.900024 
	C308.192352,133.485519 308.187408,133.457199 310.926178,126.527870 
	C311.284485,125.621330 311.687683,124.732521 312.408142,123.042511 
	C249.139450,130.174179 189.268509,148.252991 129.731705,169.205322 
	C128.729233,169.434006 128.236557,169.271149 127.898117,168.289307 
z"></path>
<path fill="#EAEAEA" opacity="1.000000" stroke="none" d="
M612.079712,248.986694 
	C613.541321,259.529480 612.851318,269.707428 612.940247,279.861633 
	C613.008911,287.709076 613.417419,295.517822 615.414978,303.123810 
	C615.942749,305.133362 615.788269,305.720764 613.710449,306.021301 
	C606.640808,307.043884 599.548584,308.007965 592.559998,309.453705 
	C588.903748,310.210052 588.639893,307.892059 588.311462,305.715485 
	C587.166443,298.127441 586.825439,290.477264 586.858459,282.800446 
	C586.900635,272.981934 587.638672,263.150421 586.246948,253.351303 
	C585.903503,250.933121 585.164551,248.847626 583.347351,247.203949 
	C581.726196,245.737564 579.621887,245.231430 577.778687,245.979614 
	C576.194763,246.622589 577.075073,248.632645 577.060059,250.011871 
	C576.853210,269.004333 576.634827,287.997498 576.623413,306.990540 
	C576.621338,310.387390 576.121460,312.003754 572.150635,312.183380 
	C565.860718,312.467896 559.589600,313.472260 553.349426,314.426392 
	C550.351013,314.884827 549.197021,314.373810 549.333191,310.983673 
	C551.260559,263.000610 550.569885,215.036636 547.979065,167.094162 
	C547.673706,161.443695 547.320251,155.787704 546.701416,150.165955 
	C546.419617,147.606491 546.622803,146.522079 549.620605,147.027710 
	C562.393921,149.182175 575.291382,150.711182 587.955261,153.366470 
	C597.279236,155.321472 603.890259,161.365753 607.062378,170.614868 
	C612.228882,185.679398 613.552429,201.098450 610.995789,216.821930 
	C610.174438,221.873398 608.179626,226.371994 603.874512,229.456879 
	C602.265015,230.610184 602.000244,231.259384 603.756287,232.643509 
	C608.866028,236.671005 611.076538,242.308548 612.079712,248.986694 
z"></path>
<path fill="#EAEAEA" opacity="1.000000" stroke="none" d="
M110.739288,237.153183 
	C113.180405,221.823349 117.047638,207.083557 121.126961,192.392441 
	C121.171463,192.232162 121.267982,192.078323 121.277908,191.917618 
	C122.041626,179.554016 130.215805,175.260727 140.983353,173.418518 
	C143.920609,172.915985 144.647842,173.178619 144.631683,176.313629 
	C144.530396,195.959656 144.748016,215.603134 146.768204,235.595230 
	C146.931931,236.635162 146.982254,237.265518 147.018555,237.897308 
	C147.227524,237.423782 147.186508,236.863495 147.713287,236.178650 
	C149.904694,214.394379 154.116150,193.237976 158.524246,172.108612 
	C159.057404,169.553101 160.481689,168.623413 162.723862,168.068161 
	C169.953323,166.277878 177.161285,164.400726 184.952713,162.410110 
	C183.143845,170.905273 181.342850,179.061722 179.676056,187.245514 
	C173.713440,216.521301 168.485046,245.913513 165.831497,275.708771 
	C165.167725,283.161987 164.302490,290.600342 163.807907,298.063965 
	C163.631363,300.728210 162.652145,301.066803 160.377930,300.589813 
	C153.887466,299.228516 147.370529,297.992126 140.857635,296.739838 
	C138.552536,296.296570 137.204437,295.331177 136.682419,292.694458 
	C133.164398,274.924957 129.690781,257.159973 128.923538,238.538818 
	C128.438675,237.791992 128.619034,237.012802 127.965080,236.873703 
	C127.909729,237.163925 127.838036,237.450195 127.687271,238.022232 
	C125.265984,254.765198 122.771278,271.210541 122.082062,287.839752 
	C121.938210,291.310425 121.282440,292.692749 117.569862,291.665619 
	C111.516113,289.990753 105.402588,288.512848 99.269058,287.156403 
	C97.274384,286.715240 95.902374,286.023956 95.341614,283.963623 
	C87.505020,255.170197 83.650230,226.023026 86.923782,196.137863 
	C87.468040,191.169113 89.464912,188.526489 94.253807,187.338989 
	C99.227867,186.105606 104.158936,184.577454 108.945801,182.751007 
	C112.448700,181.414444 112.392326,182.658340 111.984520,185.517303 
	C109.605377,202.196426 108.409409,218.946899 109.518280,236.252380 
	C109.639832,237.171783 109.781898,237.628555 109.992821,238.062363 
	C110.209038,237.907364 110.400047,237.678711 110.739288,237.153183 
z"></path>
<path fill="#EBEBEB" opacity="1.000000" stroke="none" d="
M183.699005,207.554474 
	C184.312363,197.622696 185.155090,188.202530 188.023514,179.076660 
	C192.477509,164.906235 202.290146,156.719009 216.513702,153.442734 
	C218.777405,152.921310 221.071823,152.458206 223.378067,152.208740 
	C239.035095,150.515152 246.362457,157.246735 247.731079,173.921677 
	C248.861099,187.689331 247.441315,201.540283 247.011063,215.356689 
	C246.326843,237.328400 246.308762,259.320251 245.871948,281.300873 
	C245.799850,284.928833 245.289261,288.598053 244.536362,292.153992 
	C241.106903,308.351654 230.603806,314.990692 214.003540,311.632660 
	C195.238846,307.836853 185.358124,297.597351 183.022476,278.357727 
	C180.807465,260.111694 182.066940,241.763855 182.634628,223.459198 
	C182.794479,218.305435 183.284592,213.161896 183.699005,207.554474 
z"></path>
<path fill="#EAEAEA" opacity="1.000000" stroke="none" d="
M658.463928,168.466568 
	C670.171143,175.668152 674.265015,186.803299 675.829651,199.242981 
	C676.301880,202.997574 678.344238,207.770462 676.218994,210.338593 
	C674.146057,212.843445 669.508728,209.583481 665.925720,209.892838 
	C665.761292,209.907013 665.593018,209.883774 665.427063,209.871414 
	C653.429565,208.976990 653.431335,208.976730 652.168762,197.253235 
	C652.044373,196.097870 652.089172,194.869202 651.694641,193.808823 
	C650.721924,191.194702 649.079773,188.788620 646.007690,189.151764 
	C642.717224,189.540756 643.009583,192.475189 642.879211,195.001953 
	C642.506470,202.224091 644.819885,208.465622 649.829590,213.578308 
	C655.522705,219.388351 661.593323,224.831818 667.221436,230.701523 
	C682.638977,246.780884 683.067749,275.228424 667.827148,291.621094 
	C658.546021,301.603821 646.240601,304.202179 633.460388,301.556824 
	C624.575684,299.717804 621.687744,291.525177 620.176208,283.380310 
	C618.679688,275.316254 619.062012,267.127930 619.039307,258.971710 
	C619.033813,256.995697 619.373474,255.976501 621.725647,255.930496 
	C628.045715,255.806824 634.366272,255.485794 640.674072,255.057785 
	C643.341370,254.876801 644.129028,255.778748 643.986694,258.414215 
	C643.762634,262.565033 643.819153,266.740509 643.965027,270.898224 
	C644.048523,273.278351 644.575867,275.725739 647.596375,276.041595 
	C650.573547,276.352905 652.328857,274.518555 653.036194,271.925629 
	C655.019043,264.656097 654.412048,257.754272 649.405273,251.714218 
	C645.264893,246.719299 640.846313,241.964264 635.945679,237.719055 
	C624.772278,228.040039 619.041382,215.694641 618.265320,201.131104 
	C617.780151,192.026276 616.825806,182.816528 618.961609,173.786942 
	C621.171448,164.444458 627.968506,160.160889 637.512756,161.434402 
	C644.851807,162.413651 651.700073,164.709213 658.463928,168.466568 
z"></path>
<path fill="#E9E9E9" opacity="1.000000" stroke="none" d="
M712.374695,204.636566 
	C710.224365,204.042816 708.468262,203.545868 706.120605,202.881531 
	C706.750916,209.018875 707.396240,214.853485 707.928772,220.698349 
	C708.154358,223.174545 709.982910,222.899582 711.580811,223.081207 
	C716.371948,223.625763 721.159241,224.220993 725.961365,224.644257 
	C727.987122,224.822800 728.906128,225.569717 728.968567,227.698975 
	C729.105103,232.358780 729.348083,237.020691 729.737671,241.665833 
	C729.962158,244.343231 728.983276,245.102188 726.361877,245.008652 
	C721.369446,244.830521 716.364502,245.017426 711.364746,245.018219 
	C709.994873,245.018417 708.769958,244.823410 708.806152,246.933197 
	C708.911377,253.051544 708.843384,259.172882 708.843384,265.627869 
	C714.778625,264.524353 721.116577,263.393860 727.432129,262.149628 
	C730.192688,261.605774 731.709290,262.072052 730.683228,265.301819 
	C730.632751,265.460602 730.553467,265.613190 730.523865,265.775269 
	C727.763672,280.886108 727.761475,280.876770 712.895630,284.717590 
	C704.068665,286.998169 695.239807,289.272766 686.434753,291.635681 
	C683.283020,292.481476 681.585938,292.322968 682.180420,288.203766 
	C686.639160,257.308380 685.330261,226.403946 681.951355,195.522903 
	C681.212097,188.766342 680.094788,182.051117 679.083435,174.830185 
	C684.483643,175.368576 689.375000,177.152786 694.275208,178.683014 
	C703.604553,181.596359 712.823120,184.862503 722.128784,187.854492 
	C724.744934,188.695679 726.261475,189.999710 726.668945,192.898315 
	C727.399597,198.095154 728.493347,203.240952 729.536682,208.964310 
	C723.582825,207.462006 718.175842,206.097702 712.374695,204.636566 
z"></path>
<path fill="#7A4C38" opacity="1.000000" stroke="none" d="
M907.309326,144.876862 
	C907.724304,140.016983 910.766052,135.829529 911.873474,130.958527 
	C912.859375,126.621559 914.026917,122.325874 915.284485,117.336884 
	C910.166870,118.752548 907.019775,122.498901 901.849854,124.112114 
	C904.832458,112.399208 904.603027,101.117340 903.969421,89.185684 
	C893.995361,96.141037 884.505615,102.491829 875.336914,109.276443 
	C871.358643,112.220238 869.063538,111.967110 865.618652,108.199852 
	C848.414795,89.385811 826.179565,79.472572 801.837036,72.728844 
	C801.979431,75.041603 803.601074,75.559616 804.700684,76.859467 
	C804.831848,80.278625 802.828491,80.078705 800.176147,79.336090 
	C794.387268,74.770508 789.021667,70.339851 782.828796,65.226151 
	C788.977844,64.664391 794.149170,64.708290 799.297424,65.603691 
	C818.509827,68.945175 835.658325,77.155663 851.815247,87.781281 
	C852.935425,88.517952 854.790710,92.254677 856.552246,87.873550 
	C856.862732,87.101395 858.244873,88.257690 859.020508,88.779572 
	C863.477295,91.778397 867.253906,95.556107 870.822021,99.510780 
	C873.026733,101.954346 874.664429,102.046707 877.461243,100.063065 
	C887.382019,93.026833 897.029053,85.649933 906.508667,78.040878 
	C907.263245,77.435204 908.184509,77.037193 909.489990,76.272148 
	C910.910889,84.935982 911.040527,93.304306 911.034973,101.682137 
	C911.034058,103.014938 910.917236,104.350182 910.968689,105.679863 
	C911.031372,107.301361 910.115417,109.518730 911.500549,110.399338 
	C913.309509,111.549431 914.610352,109.140587 916.230469,108.502205 
	C917.872925,107.854996 919.242371,105.418243 920.930237,106.399910 
	C922.816162,107.496735 921.895569,110.080818 921.765930,111.957031 
	C921.249878,119.426071 920.431641,126.886093 917.697205,133.928558 
	C916.762207,136.336533 917.275818,137.923233 918.919922,139.730270 
	C923.177429,144.409622 927.086243,149.422714 931.558777,153.876236 
	C932.464417,154.778030 932.961426,161.125977 936.616638,155.662781 
	C936.621521,155.655487 937.744263,156.205322 938.130615,156.672180 
	C945.655396,165.766159 953.723877,174.516052 956.103943,186.727280 
	C956.617676,189.362823 957.354004,192.001022 956.923706,194.619659 
	C956.029846,200.059586 958.555298,204.444580 961.297119,208.509689 
	C971.341980,223.402939 981.592407,238.160110 991.949585,252.838608 
	C995.007996,257.172974 998.383545,261.371216 1002.141174,265.100372 
	C1006.065186,268.994781 1006.660034,273.420898 1005.776062,278.362457 
	C1005.241638,281.349487 1004.899170,284.290894 1005.584534,287.274780 
	C1005.900757,288.651306 1005.906311,290.150574 1004.926514,291.071198 
	C1001.053345,294.710571 1001.577881,299.594147 1001.245667,304.112213 
	C1000.989197,307.601959 1000.222900,310.819366 997.915161,313.294464 
	C992.099487,319.531982 987.308350,327.089447 977.980652,329.009644 
	C975.639343,329.491608 974.409546,331.955536 972.964600,333.714935 
	C971.057556,336.036957 968.911987,336.949402 965.993835,336.461761 
	C960.087646,335.474823 954.160461,334.868652 948.148132,334.716492 
	C941.373718,334.544983 935.667725,331.303864 930.729004,326.893585 
	C927.007324,323.570007 923.698486,319.788269 920.051453,316.375580 
	C917.221436,313.727386 916.354309,310.981262 918.838989,307.311676 
	C919.246826,306.798584 919.468384,306.573700 919.738037,306.096985 
	C919.813843,305.872314 919.787231,305.819519 919.797852,305.791931 
	C921.196289,304.866241 922.623352,304.568146 924.472290,305.787903 
	C923.315735,310.458160 925.324951,313.601501 928.277771,316.539825 
	C935.311707,323.539215 942.880127,329.242554 953.627930,328.164948 
	C954.913513,328.036041 956.283813,328.351807 957.566284,328.662079 
	C963.493774,330.096069 969.077026,330.628723 972.627441,324.100250 
	C973.057983,323.308655 974.114807,322.415253 974.942444,322.350647 
	C982.860352,321.732758 986.630066,315.253021 991.660400,310.616638 
	C993.494202,308.926453 994.761108,306.667908 994.903137,304.038300 
	C995.198730,298.566803 997.271301,293.420471 998.239868,288.281158 
	C999.451050,281.855194 1002.071045,274.519745 996.044495,267.644653 
	C981.105591,250.602554 969.794312,230.846741 956.562866,212.511734 
	C952.726196,207.195221 950.299805,202.077820 950.578125,194.990479 
	C951.000549,184.236710 944.994690,172.891159 937.761780,166.768982 
	C936.531189,168.337021 937.447937,170.304276 936.578003,172.491531 
	C930.113098,162.070618 922.489685,153.026047 914.272339,144.411606 
	C911.348206,141.346146 909.653748,140.832214 907.309326,144.876862 
z"></path>
<path fill="#E8E8E8" opacity="1.000000" stroke="none" d="
M719.608032,161.538971 
	C725.487000,152.686127 733.637329,146.210236 743.103516,139.830139 
	C733.840698,138.445068 725.688904,140.048935 717.504883,140.895569 
	C709.400757,141.733902 701.652527,144.231232 693.365173,146.136551 
	C707.708923,135.179596 739.338745,116.847298 787.008667,114.803734 
	C781.949036,109.817703 772.371094,106.096283 752.024963,100.421349 
	C757.849915,100.071976 763.677368,99.390816 769.499512,99.433723 
	C789.148132,99.578514 808.153320,103.217613 826.150391,111.228409 
	C834.515259,114.951752 842.356750,119.685043 848.860229,126.301254 
	C850.154297,127.617706 852.522278,128.857788 850.871399,131.147537 
	C849.447144,133.123093 847.886169,130.984756 846.559387,130.503967 
	C819.190552,120.586365 791.917908,120.856979 764.703369,131.062881 
	C764.460632,131.153915 764.309021,131.488083 763.774597,132.095459 
	C766.761230,132.095459 769.428345,132.095459 772.547241,132.150452 
	C774.508362,132.684128 776.413940,133.174789 773.936340,134.871857 
	C772.010315,136.191162 769.576477,136.481293 767.462646,137.479645 
	C757.198303,142.327332 747.359070,147.893402 738.000366,154.342606 
	C732.541138,158.104599 726.996033,161.896530 719.608032,161.538971 
z"></path>
<path fill="#774A36" opacity="1.000000" stroke="none" d="
M840.856201,274.684052 
	C846.253479,284.756165 854.383911,292.354675 860.796753,301.236359 
	C874.455444,320.153778 879.953125,341.183411 877.400269,364.319489 
	C876.953674,368.366669 877.305725,372.588867 875.193970,376.826965 
	C868.831848,369.099731 862.237793,361.949982 854.372131,356.096954 
	C826.259155,335.177368 795.438782,329.955170 761.796326,339.561218 
	C744.700623,344.442657 727.385742,348.547394 709.687866,350.696930 
	C707.105408,351.010620 704.451965,350.740448 700.735291,350.740448 
	C707.818542,344.565155 714.436707,339.219971 721.693054,334.134338 
	C722.734070,333.512604 723.512024,333.652435 724.578247,333.901245 
	C725.624207,334.184906 726.396057,334.252380 727.495605,334.137634 
	C728.023499,334.155060 728.236511,334.188202 728.759766,334.331970 
	C731.910400,334.651855 732.101257,335.987762 730.368347,338.284729 
	C729.453796,339.078430 728.677979,339.413116 727.600952,339.646027 
	C726.742676,339.906219 727.276184,339.248932 727.054871,339.858856 
	C726.911133,340.255005 727.136780,340.304810 727.451416,339.700256 
	C728.938477,339.491730 730.104004,338.621124 731.703369,339.387268 
	C746.925049,336.378723 761.605713,332.116272 776.689148,329.632690 
	C801.421082,325.560394 824.570435,329.591064 846.216553,342.454407 
	C854.280090,347.246216 861.648010,352.794189 868.253052,359.412231 
	C868.802002,359.962372 869.322021,360.735016 870.715576,360.283905 
	C872.118225,348.352936 870.185059,336.755157 866.368835,325.320801 
	C861.998779,312.227356 853.707458,301.670349 844.910767,291.409668 
	C840.115906,285.816803 836.044434,279.806091 833.874634,272.274872 
	C836.693665,271.169739 838.368896,273.475708 840.856201,274.684052 
z"></path>
<path fill="#E7E7E7" opacity="1.000000" stroke="none" d="
M819.779053,290.688782 
	C821.116089,292.981354 822.189331,294.985809 823.262573,296.990234 
	C823.817383,291.618988 821.979431,286.501434 822.700745,281.005096 
	C831.949829,301.078918 850.060974,315.610626 857.609558,337.837769 
	C839.130066,323.161438 819.012512,315.454254 795.520203,316.349609 
	C792.835632,315.162750 791.940918,313.951111 794.666321,312.359589 
	C796.070862,311.539337 797.588318,310.948547 799.025330,310.189301 
	C802.178345,308.523193 800.916870,307.569550 798.245605,306.535583 
	C796.745361,303.100433 799.366150,300.704773 799.829773,297.828461 
	C800.271301,295.089844 801.247864,292.439819 801.341919,289.623718 
	C799.229309,296.286438 795.042480,301.636414 790.537231,307.202393 
	C790.205688,307.684692 790.069458,307.876129 789.699707,308.332947 
	C788.975891,309.110046 788.406250,309.541351 787.702148,310.353210 
	C785.354797,312.440125 782.999451,313.370544 780.217834,312.545380 
	C778.937317,312.165466 777.641113,311.575439 777.643188,309.988129 
	C777.644958,308.613403 778.817810,308.083710 779.938599,307.792023 
	C782.235535,307.194366 784.218811,306.186615 785.695679,303.792084 
	C786.013794,303.279999 786.157104,303.086761 786.550354,302.637573 
	C787.359009,301.819061 788.725342,301.389465 788.466309,300.808167 
	C787.158447,297.873474 788.328674,294.382538 786.174988,291.338074 
	C791.289185,281.781708 794.751953,271.821686 798.135864,261.425842 
	C800.137085,258.755463 800.921814,255.699677 803.282471,253.725067 
	C805.737488,251.671661 807.571045,252.211136 808.246277,255.346390 
	C808.909607,258.426514 808.493896,261.622742 809.063965,264.744476 
	C810.760559,274.035339 815.161316,282.203918 819.779053,290.688782 
z"></path>
<path fill="#7B4C36" opacity="1.000000" stroke="none" d="
M639.795837,127.588623 
	C640.784973,127.362213 641.530029,127.246223 642.653320,127.159401 
	C643.199158,127.264160 643.366882,127.339752 643.758911,127.254570 
	C644.934143,126.965981 645.885071,126.838173 647.195068,126.744186 
	C648.517212,126.557625 649.500305,126.500015 650.743408,126.160904 
	C652.111938,125.634979 653.217712,125.368004 654.665405,125.101013 
	C655.495850,125.511665 656.029297,125.527184 656.767944,125.055817 
	C671.665710,121.060730 684.607361,112.899414 698.829102,107.603149 
	C689.186890,106.757477 679.785339,108.819679 670.312378,109.874969 
	C686.208801,86.402794 757.359741,72.370285 802.593872,83.925667 
	C807.748413,83.390282 810.744873,86.011246 813.466003,89.860771 
	C814.500732,91.076546 815.198792,92.071938 815.143921,93.705597 
	C803.178772,91.498718 791.485596,88.374077 779.312988,87.454750 
	C751.898743,85.384300 725.215393,88.000298 699.319458,98.846817 
	C698.118774,100.117317 696.889404,100.807747 696.119934,101.683029 
	C702.928284,103.295700 709.595276,101.999207 716.567871,102.297928 
	C717.120605,102.119629 717.295471,102.097229 717.733887,102.095474 
	C718.736816,102.658134 719.579224,102.478577 720.692139,102.353485 
	C721.710083,102.252853 722.434753,102.257965 723.512085,102.349701 
	C725.487122,105.229713 723.169861,106.169861 721.242676,107.651596 
	C720.335510,108.011673 719.704346,108.143562 718.750366,108.275665 
	C718.051636,108.227097 717.715454,108.320755 717.206665,108.729942 
	C702.619263,112.526245 689.173279,118.503685 675.829468,124.830605 
	C667.283447,128.882706 658.181335,131.411484 648.429382,133.018829 
	C646.220703,134.877304 644.016357,134.827454 641.360229,134.266022 
	C640.980408,134.089020 640.992920,133.948608 641.001953,133.878708 
	C640.187561,133.342834 639.247192,133.586563 638.069702,133.248535 
	C637.757690,133.121841 637.372681,133.086884 637.193726,133.013824 
	C635.894226,131.722931 633.627319,131.184082 634.791260,128.473328 
	C635.775940,128.095428 636.509094,128.006256 637.611938,127.922455 
	C638.522034,127.968163 639.049622,127.920731 639.795837,127.588623 
z"></path>
<path fill="#B7B7B7" opacity="1.000000" stroke="none" d="
M891.133789,222.295685 
	C893.439331,222.023193 894.658875,223.845627 896.070801,225.113251 
	C909.548706,237.214310 922.267273,250.033142 932.618652,265.006500 
	C933.070435,265.659943 933.440369,266.369873 934.484070,268.118317 
	C927.872559,266.942078 923.218140,262.933716 917.265259,262.332581 
	C910.646362,257.068756 903.101990,255.410339 895.322937,255.049805 
	C887.859741,254.703918 880.343323,255.440857 872.886658,255.034714 
	C850.274597,253.803146 835.901672,236.146271 839.073608,213.325714 
	C843.026733,211.015564 843.601013,206.111984 848.252625,203.852493 
	C848.252625,208.118027 847.697266,212.235794 848.352905,216.150726 
	C850.665771,229.960449 858.735901,238.557678 872.352783,242.422562 
	C882.165955,245.207855 892.211548,245.504395 903.015564,247.329071 
	C898.732483,238.560226 894.881836,230.676743 891.133789,222.295685 
z"></path>
<path fill="#B5B5B5" opacity="1.000000" stroke="none" d="
M822.147400,168.696716 
	C826.915405,169.334061 831.373596,167.128601 836.112305,166.442520 
	C838.731140,166.063370 841.285706,165.851227 845.280457,166.377823 
	C834.573914,170.542542 825.602966,175.377319 817.867371,182.130173 
	C809.468201,189.462341 801.695374,197.361862 797.538574,208.566360 
	C791.187256,215.272125 784.481079,221.056366 778.882202,228.340698 
	C778.394531,228.590271 778.160767,228.633911 777.941772,228.321152 
	C782.610352,213.719421 789.912659,201.017929 800.247803,189.698395 
	C800.391907,189.194061 800.379211,188.984360 800.051880,188.756592 
	C791.735901,191.550217 784.512329,195.786591 777.398804,200.938187 
	C776.550903,201.316498 776.116455,201.173874 775.857910,200.297852 
	C792.975159,175.474457 815.755005,159.677704 845.653748,154.106003 
	C845.260620,156.709885 842.711304,156.691895 840.890503,157.388351 
	C834.039917,160.008636 828.041199,163.964066 822.147400,168.696716 
z"></path>
<path fill="#C9C9C9" opacity="1.000000" stroke="none" d="
M719.113464,161.486298 
	C725.940857,159.983978 731.758362,156.904160 737.281738,153.156372 
	C748.656311,145.438400 760.126709,137.895721 773.502319,133.948257 
	C773.648315,133.905182 773.784424,133.829010 773.925171,133.768311 
	C773.732056,133.386063 773.538940,133.003815 773.172485,132.413483 
	C782.506714,131.436829 791.871887,132.478836 801.172180,134.439178 
	C801.307861,136.000092 800.025818,135.699905 799.175781,135.883377 
	C773.020264,141.528900 750.768127,153.493637 734.894714,175.703613 
	C733.731567,177.330994 733.012695,177.945511 731.034729,176.729385 
	C725.820557,173.523392 720.434082,170.597610 714.885315,167.428406 
	C716.273010,165.448853 717.592346,163.566833 719.113464,161.486298 
z"></path>
<path fill="#824A2F" opacity="1.000000" stroke="none" d="
M672.781616,325.184540 
	C673.440125,324.618835 673.887878,324.277283 674.617859,323.871460 
	C676.813416,323.724243 678.077026,322.399445 679.691772,321.118378 
	C679.874878,320.840912 679.939453,320.840240 679.913940,320.859985 
	C681.266907,320.306335 682.557739,319.600952 683.771362,318.219116 
	C683.992798,317.992035 684.000000,318.000000 683.996826,317.996155 
	C684.402466,317.629425 684.877502,317.480347 685.789062,317.657257 
	C687.476746,319.318207 687.183533,321.005066 686.446899,323.046814 
	C686.179626,323.752869 686.056763,324.137848 686.102295,324.760193 
	C686.715698,325.283630 687.179871,325.105835 687.890259,324.705627 
	C688.318665,324.455078 688.495056,324.357788 688.944519,324.120636 
	C690.001099,323.676056 690.712891,323.248718 691.642090,322.543762 
	C692.117798,322.272430 692.317627,322.179108 692.833984,321.983704 
	C695.057861,321.494781 697.172913,321.803528 698.978271,319.997620 
	C699.423279,319.653137 699.612366,319.528931 700.115417,319.275513 
	C703.637390,318.712891 706.257507,317.168365 708.756165,314.671143 
	C711.241333,313.934479 713.507080,313.567139 715.678284,312.070068 
	C715.853027,311.773987 715.814575,311.906860 715.805359,311.838318 
	C717.090088,311.052582 718.404114,310.367279 719.752380,309.168823 
	C719.956299,308.925598 720.003418,308.985657 719.969238,308.968750 
	C722.925598,307.576202 725.806641,306.040405 728.304993,303.837982 
	C729.952576,302.385498 732.084595,300.823334 733.872742,302.967896 
	C735.906494,305.407135 732.285950,305.923920 731.361145,307.832825 
	C731.116272,308.143341 731.046448,308.144745 731.076782,308.128082 
	C728.505798,309.480194 725.916199,310.868591 723.377686,312.917938 
	C723.211243,313.214294 723.169983,313.135101 723.183228,313.169128 
	C722.450500,313.495728 721.958191,314.101562 721.249634,314.882263 
	C721.083984,315.119507 721.022461,315.074707 721.057983,315.061066 
	C720.797607,315.205994 720.542236,315.414337 720.177490,315.870422 
	C720.027588,316.068451 720.015381,315.999725 720.040100,316.024414 
	C719.224182,316.630493 718.181396,316.876404 717.272217,317.883606 
	C717.100952,318.138947 717.004700,318.109619 717.054810,318.105652 
	C715.084290,319.024414 712.939575,319.746246 711.275146,321.841431 
	C711.070435,322.105896 710.993896,322.043915 711.040894,322.058411 
	C709.541748,322.932770 707.743958,323.336853 706.253052,324.913757 
	C705.256958,325.771790 704.449280,326.354156 703.341675,326.989563 
	C694.094299,335.568848 682.216125,336.354675 671.077393,338.862610 
	C664.993286,340.232483 658.763062,341.295288 652.470764,341.454926 
	C650.980774,341.492737 648.843750,342.314545 648.410339,339.858032 
	C648.006775,337.570862 649.964294,337.477753 651.504883,336.819153 
	C657.279480,334.350616 662.863159,331.474243 668.588623,328.085266 
	C668.835449,327.770660 668.905640,327.808502 668.882446,327.840942 
	C669.180237,327.758331 669.451355,327.569702 669.814697,327.105072 
	C669.950256,326.892822 669.958862,326.984650 669.929810,326.948822 
	C670.785583,326.402283 671.794678,326.112152 672.781616,325.184540 
z"></path>
<path fill="#F5F5F5" opacity="1.000000" stroke="none" d="
M785.763306,291.203125 
	C788.600403,291.651978 791.304565,292.195435 788.826904,295.774963 
	C788.069702,296.868805 788.748535,297.317902 789.554993,298.105865 
	C792.374817,300.861053 790.881531,302.278900 787.377441,302.992004 
	C786.800293,302.802307 786.602356,302.602539 786.402832,302.404419 
	C786.203430,302.206451 786.270203,302.272400 786.803711,302.799255 
	C786.819336,308.399231 782.803406,308.971191 778.130371,309.374603 
	C781.148926,312.760010 783.829346,311.599243 786.753052,309.814941 
	C787.219727,308.837341 787.784668,308.521545 788.787598,308.217896 
	C789.072876,308.028687 789.016663,307.992737 789.029175,308.023621 
	C791.330505,306.056610 793.697693,304.287842 797.341309,305.571350 
	C799.647949,306.641022 802.986633,304.576691 803.663391,307.663635 
	C804.315491,310.638214 800.602417,310.490692 798.983704,311.891815 
	C797.922974,312.809998 796.280212,313.057770 794.895386,313.598969 
	C793.282410,314.229340 794.108154,314.980927 794.926636,315.982178 
	C781.136108,317.631042 767.918335,321.846313 754.397888,326.418762 
	C753.477173,325.801514 752.835083,325.305237 752.797485,324.115356 
	C757.672607,320.071838 762.404541,316.396362 767.443237,312.554199 
	C771.132507,312.249817 774.543274,312.143219 773.660095,306.847534 
	C777.775696,301.558136 782.354431,297.034821 785.763306,291.203125 
z"></path>
<path fill="#724938" opacity="1.000000" stroke="none" d="
M731.450684,308.070679 
	C730.685852,306.130249 732.835754,305.507660 733.722656,303.231689 
	C728.202271,303.283173 725.692505,309.263641 720.325195,308.961975 
	C728.937805,302.154968 738.110168,295.569305 746.902771,288.510498 
	C759.398438,278.478821 770.440125,266.961456 780.453857,254.025253 
	C782.139465,253.361633 782.807739,254.185486 783.205322,255.756927 
	C781.673706,262.866394 779.299866,269.250946 776.469360,275.824188 
	C776.056458,276.199005 775.871887,276.309357 775.829163,276.709473 
	C775.509033,278.200317 775.047058,279.401459 774.350647,280.826263 
	C773.514832,281.407410 772.867737,281.537872 771.743164,281.172668 
	C771.609924,278.922668 771.908325,276.941284 772.157593,274.530609 
	C772.108459,274.101288 772.346619,273.709229 772.150146,273.827576 
	C760.832703,283.625549 750.218018,293.889099 738.547974,302.934906 
	C736.322571,304.659912 734.040833,306.312195 731.450684,308.070679 
z"></path>
<path fill="#714736" opacity="1.000000" stroke="none" d="
M752.679443,189.121002 
	C759.177063,176.094437 768.554260,166.273804 780.463318,158.963867 
	C788.380981,154.103958 796.908081,150.488190 806.527466,148.701904 
	C807.362671,149.178299 807.547913,149.774429 807.315186,150.899277 
	C787.357971,161.019409 770.254944,174.183823 755.488892,190.929871 
	C753.653992,191.761612 752.692871,191.377213 752.679443,189.121002 
z"></path>
<path fill="#B3B3B3" opacity="1.000000" stroke="none" d="
M820.067261,290.590393 
	C814.237488,286.910614 812.715942,280.230164 810.125977,274.290344 
	C807.657104,268.628387 806.607056,262.564209 807.004456,256.315399 
	C807.063293,255.390778 807.431763,254.102203 806.344788,253.631927 
	C804.868103,252.993042 804.471313,254.520386 803.764160,255.350800 
	C802.162048,257.232178 800.552185,259.106995 798.616943,261.034485 
	C801.279846,248.931595 806.855774,238.085724 815.079224,228.146851 
	C815.330566,228.069672 815.300781,228.282166 815.555054,228.646057 
	C809.216858,249.293381 812.142517,269.184418 819.635315,288.787506 
	C819.812256,289.250153 819.940674,289.731293 820.067261,290.590393 
z"></path>
<path fill="#734634" opacity="1.000000" stroke="none" d="
M891.248169,282.222168 
	C881.674316,276.528931 870.826050,279.051697 861.082581,276.066925 
	C855.367676,274.316284 849.748413,272.470184 844.702759,268.497101 
	C844.401001,266.307465 844.577087,264.456329 846.656616,263.007904 
	C854.800842,267.487732 862.861816,271.805908 872.167480,271.019318 
	C881.781616,270.206665 889.640259,273.958221 897.658081,278.876892 
	C897.029419,282.497314 894.000366,281.766907 891.248169,282.222168 
z"></path>
<path fill="#B3B3B3" opacity="1.000000" stroke="none" d="
M955.943970,250.655701 
	C950.514526,248.430313 946.722534,243.743057 942.157532,240.035339 
	C931.512024,231.388916 920.457581,223.417404 907.647400,217.597641 
	C907.958557,216.742966 908.523865,216.518936 909.630493,216.803055 
	C912.389954,219.723572 915.823364,218.875015 918.731018,219.550781 
	C928.769836,221.883865 936.791626,227.639191 944.856567,233.921295 
	C945.204041,233.827881 945.131897,233.919922 945.090210,233.878937 
	C945.455017,234.405624 946.012329,234.754608 947.001099,234.942444 
	C951.315186,239.414688 953.063660,245.155701 955.943970,250.655701 
z"></path>
<path fill="#B5B5B5" opacity="1.000000" stroke="none" d="
M956.094727,311.761841 
	C957.796448,313.544189 958.993774,315.261292 959.042542,318.026154 
	C953.380005,317.436493 947.710999,317.165619 942.718811,314.744995 
	C937.936340,312.425995 933.931396,309.103027 934.672791,302.545074 
	C935.088501,298.868286 933.861633,295.153107 932.332458,291.308716 
	C936.463501,292.033569 939.291199,294.353577 942.800842,295.963470 
	C943.166138,295.944122 943.052185,295.976379 943.038879,295.918701 
	C943.330200,296.224243 943.682373,296.532318 944.264282,297.084045 
	C944.460388,297.626343 944.481628,297.860962 944.566833,298.442871 
	C944.575195,306.341278 950.753357,308.475159 956.094727,311.761841 
z"></path>
<path fill="#B7B7B7" opacity="1.000000" stroke="none" d="
M910.457153,217.028809 
	C909.490845,217.045502 908.924561,217.069321 907.933105,217.174805 
	C901.660828,216.244049 897.624329,212.481186 895.042908,207.631851 
	C891.235413,200.479523 889.543823,192.522736 888.124146,184.153992 
	C892.797607,187.187286 896.280518,190.843521 897.823486,197.164062 
	C900.338806,207.467606 908.396118,212.788620 919.705078,214.057129 
	C916.544189,216.334381 913.721008,216.745270 910.457153,217.028809 
z"></path>
<path fill="#5D3627" opacity="1.000000" stroke="none" d="
M846.865295,262.581146 
	C846.399658,264.515259 845.766479,266.167389 844.794800,268.030518 
	C842.233887,267.591858 840.593689,265.955597 838.409363,264.293884 
	C837.689453,268.374756 840.252869,271.049042 841.078369,274.535645 
	C838.320557,275.574036 836.367737,274.020538 834.177979,272.064331 
	C830.213806,263.145111 829.833191,254.086258 831.243164,244.673080 
	C835.301392,251.634613 840.065979,257.794403 846.865295,262.581146 
z"></path>
<path fill="#734634" opacity="1.000000" stroke="none" d="
M685.280640,324.183472 
	C685.326355,322.227539 685.658081,320.507141 685.988464,318.404358 
	C685.801636,317.842102 685.616089,317.662231 685.634827,317.152924 
	C685.839172,316.823486 685.887024,316.825653 685.881470,316.848999 
	C686.801086,316.428253 687.795166,316.105621 688.698242,315.085999 
	C688.850159,314.816742 688.908447,314.880035 688.867981,314.894684 
	C689.131287,314.737335 689.351990,314.495117 689.496704,313.926422 
	C689.531738,313.693787 689.652771,313.270386 689.752563,313.095337 
	C689.852356,312.920258 690.106812,312.669342 689.919434,312.660339 
	C689.732117,312.651367 689.348999,312.704681 689.163940,312.648621 
	C686.597717,312.970367 684.216614,313.348206 681.444336,313.731018 
	C680.313904,313.229431 679.717468,312.632111 679.888367,311.366577 
	C687.382874,308.333527 694.717529,305.582977 702.425537,302.767883 
	C705.285217,302.773285 706.037659,304.152802 705.423828,306.851013 
	C704.546204,308.252075 703.853821,309.226410 702.994507,310.453369 
	C702.492920,311.851166 701.408386,312.088531 700.356567,312.835815 
	C699.570435,313.573853 698.971497,314.068359 698.205566,314.805328 
	C695.187500,319.909943 690.944031,322.919067 685.280640,324.183472 
z"></path>
<path fill="#714736" opacity="1.000000" stroke="none" d="
M856.287903,122.319412 
	C854.954407,123.987183 853.853149,125.396225 852.369446,127.294632 
	C848.057739,117.824104 844.410217,108.631912 838.306213,100.552933 
	C843.543030,102.024345 847.489014,105.588417 851.817932,108.457199 
	C853.191101,109.367218 854.418884,110.497520 855.707153,111.534546 
	C861.962097,116.569817 861.961365,116.570702 856.287903,122.319412 
z"></path>
<path fill="#724938" opacity="1.000000" stroke="none" d="
M668.467407,327.770203 
	C667.968994,331.027649 664.764832,331.537506 662.444031,332.911896 
	C659.221313,334.820404 655.672485,336.180389 652.253540,337.754059 
	C651.167175,338.254089 649.026855,337.745392 649.412476,339.686523 
	C649.807312,341.673706 651.867188,341.053864 653.222168,340.882446 
	C657.323547,340.363434 661.413452,339.716034 665.479797,338.966156 
	C674.883057,337.232056 684.400024,336.030579 693.330688,332.210052 
	C695.751892,331.174286 697.762451,329.971466 698.916382,327.695465 
	C699.826538,325.900299 700.965698,325.749695 702.797180,326.783569 
	C703.174988,327.738495 703.588196,328.130463 704.613281,328.219482 
	C705.155640,328.341003 705.382935,328.443298 705.398804,328.853973 
	C696.365906,334.625122 686.218750,336.069061 676.430420,338.539948 
	C664.610352,341.523712 652.548645,342.788574 640.366211,342.841522 
	C639.149902,342.846832 637.733826,343.380676 636.113037,341.619293 
	C647.420776,337.904785 657.740967,332.795471 668.467407,327.770203 
z"></path>
<path fill="#B5B5B5" opacity="1.000000" stroke="none" d="
M961.996460,311.406952 
	C966.260864,308.456818 968.739319,304.563965 969.548096,299.158386 
	C969.923828,298.734283 970.128479,298.631317 970.604736,298.317871 
	C973.355774,296.970673 975.636719,295.397766 978.641724,294.856934 
	C981.583679,295.661987 982.265442,298.560730 984.739990,299.896088 
	C980.811646,307.551270 973.097534,310.165955 965.913940,313.474213 
	C964.306396,314.214600 963.366699,312.395233 961.996460,311.406952 
z"></path>
<path fill="#B7B7B7" opacity="1.000000" stroke="none" d="
M913.658203,262.201111 
	C913.899475,265.553650 915.951904,267.343750 918.239502,269.181061 
	C925.055359,274.655121 932.287109,279.728485 936.959106,287.753113 
	C925.049805,280.002441 913.503113,271.373474 899.875854,264.499207 
	C904.800720,262.888885 908.956665,262.172668 913.658203,262.201111 
z"></path>
<path fill="#5D3627" opacity="1.000000" stroke="none" d="
M891.102783,282.379211 
	C892.881531,280.804962 895.144897,280.126099 897.693604,279.324402 
	C904.104614,281.540710 909.351013,285.526794 914.936768,289.545441 
	C915.933105,291.844818 914.975281,293.346832 913.323914,294.931824 
	C905.764648,290.955383 898.550598,286.792694 891.102783,282.379211 
z"></path>
<path fill="#5C3D32" opacity="1.000000" stroke="none" d="
M660.662354,139.155121 
	C670.325989,137.901657 679.628967,136.537735 688.931885,135.173813 
	C689.037659,135.448761 689.143433,135.723709 689.249207,135.998642 
	C681.970825,138.964859 674.810486,142.290451 667.361328,144.736679 
	C663.941101,145.859833 660.889893,142.768097 657.492310,141.099457 
	C657.070923,138.374420 658.865051,139.005386 660.662354,139.155121 
z"></path>
<path fill="#503023" opacity="1.000000" stroke="none" d="
M913.155518,295.398560 
	C913.590271,293.570740 914.201843,292.023438 914.971252,290.148346 
	C920.916504,293.345734 926.886169,296.754059 924.903015,305.649658 
	C923.425781,306.037567 922.036926,305.979980 920.228271,305.843384 
	C921.156311,300.150940 916.664185,298.287567 913.155518,295.398560 
z"></path>
<path fill="#724938" opacity="1.000000" stroke="none" d="
M909.681152,196.426697 
	C912.858521,201.177444 916.864075,204.638901 921.366150,207.631485 
	C911.631531,208.478271 905.913391,203.370773 905.466736,194.369247 
	C907.187378,194.102371 907.964600,195.824814 909.681152,196.426697 
z"></path>
<path fill="#5D3627" opacity="1.000000" stroke="none" d="
M813.342041,90.921082 
	C810.534912,87.784500 807.492004,85.417130 803.216919,84.252365 
	C802.020447,82.574318 801.056519,81.160477 799.922729,79.473892 
	C801.409424,78.837517 803.349365,79.384987 804.769409,77.380219 
	C808.181580,79.459305 811.256104,82.028694 813.928101,85.493629 
	C814.231689,86.104790 814.415039,86.405876 814.855164,86.842476 
	C815.063293,87.008087 815.286865,87.368767 815.349731,87.571426 
	C815.362610,89.084961 814.841980,90.130997 813.342041,90.921082 
z"></path>
<path fill="#DADADA" opacity="1.000000" stroke="none" d="
M956.273621,311.545959 
	C954.206787,311.892609 952.298279,310.856445 950.284180,310.152069 
	C944.796448,308.232910 943.194824,304.204498 944.009277,298.383545 
	C944.276672,297.912048 944.524109,297.877899 944.890869,298.198853 
	C945.010254,298.553986 945.420105,298.743195 945.429199,298.863434 
	C946.168823,299.276398 946.919189,299.504852 948.038330,299.852295 
	C948.931824,300.657501 949.473755,301.287537 949.993652,302.174072 
	C950.081848,302.850830 950.276184,303.227844 950.803711,303.765961 
	C951.052917,303.970398 950.994202,303.984711 951.017517,303.965210 
	C951.281860,304.207794 951.565002,304.409119 952.103149,304.704712 
	C952.683411,305.250977 953.119568,305.535706 953.853149,305.843689 
	C954.080933,305.975708 954.003784,305.983276 954.020386,305.948425 
	C952.674133,308.489838 955.504395,309.398071 956.273621,311.545959 
z"></path>
<path fill="#B3B3B3" opacity="1.000000" stroke="none" d="
M922.728821,196.595032 
	C925.175720,195.860535 926.110718,198.277084 927.861938,199.273697 
	C930.474060,200.760254 932.575745,203.393478 936.424805,202.965088 
	C936.500061,205.025558 936.197632,207.113876 935.869080,209.382584 
	C930.398621,206.208450 926.390320,201.806824 922.728821,196.595032 
z"></path>
<path fill="#1C0B0A" opacity="1.000000" stroke="none" d="
M660.943848,138.865417 
	C659.879028,139.664215 658.735046,140.062820 657.393921,140.691147 
	C651.734985,139.336929 646.481873,137.233017 641.211914,134.341827 
	C643.064575,133.726852 645.148804,133.364685 647.631287,133.046051 
	C649.938599,136.416504 653.505493,136.147232 656.548767,136.954620 
	C658.036743,137.349396 659.967529,136.384247 660.943848,138.865417 
z"></path>
<path fill="#503023" opacity="1.000000" stroke="none" d="
M728.380615,334.846313 
	C728.052490,335.028534 727.834839,335.050629 727.289307,335.088745 
	C726.533447,335.061981 726.104492,335.036591 725.352051,335.042297 
	C724.215637,334.796295 723.401550,334.539276 722.295837,334.143158 
	C726.235229,329.945038 731.388428,327.203888 736.680908,324.070435 
	C735.774963,328.434570 731.728333,330.502533 728.845337,334.023865 
	C728.630371,334.323059 728.491028,334.686188 728.380615,334.846313 
z"></path>
<path fill="#1C0B0A" opacity="1.000000" stroke="none" d="
M684.739380,324.065399 
	C689.804077,322.015839 693.298889,318.207123 697.717957,315.153961 
	C698.653870,316.271454 699.081299,317.656494 700.971802,318.161377 
	C701.358276,318.925873 700.965637,319.325897 700.185730,319.791809 
	C699.931580,319.940643 700.009399,319.973816 699.978149,319.945068 
	C698.151306,321.640533 695.847595,322.135529 693.233032,322.780060 
	C692.945923,322.987335 692.477661,323.074402 692.252930,323.153137 
	C691.342651,324.012054 690.532532,324.560272 689.194885,324.761932 
	C688.933777,324.912170 689.012146,324.932953 688.975220,324.912354 
	C688.080872,325.872742 686.846680,325.944000 685.360229,326.125305 
	C683.180603,325.889587 683.230225,325.211395 684.739380,324.065399 
z"></path>
<path fill="#5C3D32" opacity="1.000000" stroke="none" d="
M721.370361,107.887512 
	C721.914307,106.269287 722.862000,104.658783 723.837280,102.742302 
	C727.926392,103.008804 731.988037,103.581284 736.049622,104.153763 
	C736.094238,104.502327 736.138794,104.850891 736.183411,105.199448 
	C731.380310,106.098038 726.577209,106.996635 721.370361,107.887512 
z"></path>
<path fill="#503023" opacity="1.000000" stroke="none" d="
M705.551331,307.160339 
	C704.968994,305.761139 704.941040,304.138245 703.114624,302.935486 
	C705.949158,300.440826 709.531616,299.114929 713.621948,297.987915 
	C712.416687,302.041718 709.027771,304.439484 705.551331,307.160339 
z"></path>
<path fill="#727272" opacity="1.000000" stroke="none" d="
M737.590454,332.114197 
	C741.242188,329.778412 744.741211,327.921478 748.586731,326.006287 
	C750.002502,326.038116 751.123413,325.928284 752.074341,327.141724 
	C748.106689,330.651001 743.208862,332.031738 738.359375,334.354523 
	C737.587341,333.909241 737.401733,333.284027 737.590454,332.114197 
z"></path>
<path fill="#62463C" opacity="1.000000" stroke="none" d="
M752.555298,188.879517 
	C753.045166,189.657745 753.317688,190.615112 754.842590,191.013397 
	C752.950012,195.464630 749.816284,199.207382 746.483032,203.221710 
	C746.006897,203.445541 745.789368,203.439804 745.495056,203.116730 
	C747.066895,197.913422 749.398071,193.369385 752.555298,188.879517 
z"></path>
<path fill="#503023" opacity="1.000000" stroke="none" d="
M813.123657,91.289536 
	C813.592712,90.058281 814.197144,89.099571 815.107056,87.957474 
	C818.764282,89.565697 820.384583,92.644630 822.114929,96.139633 
	C819.337402,96.351822 817.489319,95.115768 815.244385,94.295883 
	C814.427673,93.218582 813.843384,92.390335 813.123657,91.289536 
z"></path>
<path fill="#E7E7E7" opacity="1.000000" stroke="none" d="
M773.497986,306.696960 
	C773.639160,308.297852 777.645325,308.662933 775.558167,310.712708 
	C773.674072,312.563019 771.666626,315.658600 767.954102,312.725739 
	C769.566345,310.541718 771.382812,308.695953 773.497986,306.696960 
z"></path>
<path fill="#C9C9C9" opacity="1.000000" stroke="none" d="
M127.542480,167.885071 
	C128.211197,168.189026 128.497498,168.522095 129.066589,169.033173 
	C125.171898,171.786972 120.259651,172.545273 115.493576,174.724030 
	C114.952415,174.526459 114.810043,174.256378 114.845184,173.564178 
	C119.012436,171.269287 122.852570,169.049179 127.542480,167.885071 
z"></path>
<path fill="#62463C" opacity="1.000000" stroke="none" d="
M807.518555,151.279785 
	C807.090393,150.754272 807.037354,150.156982 806.958008,149.109116 
	C810.908447,147.164841 814.981445,146.178986 819.509583,146.918488 
	C815.637634,148.348312 811.765686,149.778152 807.518555,151.279785 
z"></path>
<path fill="#62463C" opacity="1.000000" stroke="none" d="
M737.373779,331.715088 
	C737.817078,332.262482 737.891052,332.889618 737.979736,333.992737 
	C736.113953,335.424011 734.233582,336.379272 732.109497,337.552490 
	C731.349792,338.544556 730.609619,338.716064 729.397095,338.349426 
	C729.106567,337.101257 732.688477,335.845276 728.563599,335.025543 
	C728.260193,334.811615 728.319336,334.641144 728.539062,334.408997 
	C731.421753,333.480316 734.213074,332.637573 737.373779,331.715088 
z"></path>
<path fill="#62463C" opacity="1.000000" stroke="none" d="
M771.122070,281.158325 
	C771.936035,280.935852 772.560608,280.967651 773.650635,281.024719 
	C772.881836,284.906891 770.276123,288.021881 768.185608,291.783508 
	C767.774597,292.170502 767.613098,292.324615 767.209839,292.247131 
	C768.289551,288.481232 769.611145,284.946960 771.122070,281.158325 
z"></path>
<path fill="#62463C" opacity="1.000000" stroke="none" d="
M783.381165,255.917694 
	C782.529419,255.497406 781.930786,254.818069 781.022949,253.979675 
	C782.452209,251.116333 784.190613,248.412033 785.929016,245.707733 
	C786.253662,245.840683 786.578308,245.973618 786.902954,246.106567 
	C785.813416,249.290588 784.723877,252.474625 783.381165,255.917694 
z"></path>
<path fill="#5C3D32" opacity="1.000000" stroke="none" d="
M679.674500,311.096741 
	C680.351013,311.781738 680.653809,312.479401 681.004944,313.456543 
	C677.900940,315.001007 674.614685,315.023224 671.061890,314.226807 
	C673.808167,313.187683 676.554504,312.148560 679.674500,311.096741 
z"></path>
<path fill="#62463C" opacity="1.000000" stroke="none" d="
M634.641235,128.122742 
	C634.595337,130.024231 636.219543,130.939529 636.944214,132.614227 
	C634.178528,131.872955 631.342224,130.805145 628.205688,129.624298 
	C630.287659,127.541687 632.357361,128.246796 634.641235,128.122742 
z"></path>
<path fill="#7A4C38" opacity="1.000000" stroke="none" d="
M716.552368,102.077133 
	C709.544800,103.849861 702.089355,102.964371 694.320679,102.353073 
	C695.582153,100.904274 697.291626,100.654175 699.565796,101.566452 
	C703.046204,101.707359 706.095398,101.701721 709.600586,101.660110 
	C710.791199,101.499115 711.530579,101.501701 712.624634,101.654114 
	C714.038330,101.847580 715.098633,101.929909 716.552368,102.077133 
z"></path>
<path fill="#724938" opacity="1.000000" stroke="none" d="
M700.322021,319.960632 
	C700.278015,319.521851 700.624451,319.103088 701.138977,318.466949 
	C703.074585,317.394135 704.842102,316.538635 706.846130,315.443848 
	C707.236633,314.769470 707.549988,314.533875 708.538452,314.773865 
	C707.105896,318.106476 704.350830,319.796844 700.322021,319.960632 
z"></path>
<path fill="#B3B3B3" opacity="1.000000" stroke="none" d="
M714.194458,176.858521 
	C713.949463,176.383286 713.958740,176.109879 713.979736,175.426270 
	C716.964783,176.447723 719.938110,177.879349 722.957092,179.815338 
	C720.151428,179.233246 717.300110,178.146805 714.194458,176.858521 
z"></path>
<path fill="#B7B7B7" opacity="1.000000" stroke="none" d="
M101.157913,303.443542 
	C101.029114,303.947510 100.677193,304.180145 100.172508,304.690186 
	C97.773033,303.851501 95.526314,302.735382 93.142380,301.307007 
	C92.877716,300.849487 92.750275,300.704285 92.891800,300.451172 
	C95.752121,301.286255 98.343452,302.229248 101.157913,303.443542 
z"></path>
<path fill="#724938" opacity="1.000000" stroke="none" d="
M723.554382,313.175781 
	C723.741516,308.944214 727.600098,309.268890 730.723816,308.080750 
	C729.236084,310.550110 726.614258,311.911804 723.554382,313.175781 
z"></path>
<path fill="#B3B3B3" opacity="1.000000" stroke="none" d="
M114.680374,173.191223 
	C115.032654,173.417847 115.042633,173.693680 115.073700,174.383026 
	C112.932449,175.628479 110.770096,176.460434 108.272324,177.459137 
	C107.840317,177.373825 107.743744,177.121750 107.879395,176.538010 
	C110.187111,175.217697 112.262589,174.229065 114.680374,173.191223 
z"></path>
<path fill="#1C0B0A" opacity="1.000000" stroke="none" d="
M699.847900,101.464279 
	C698.282654,101.813965 696.568237,101.914940 694.425049,102.055405 
	C694.420166,99.611115 696.894592,100.077187 698.679565,99.052986 
	C699.241821,99.761642 699.470276,100.488609 699.847900,101.464279 
z"></path>
<path fill="#724938" opacity="1.000000" stroke="none" d="
M711.403503,322.043884 
	C711.361023,318.843811 713.838501,318.427032 716.725891,318.076111 
	C715.705078,319.934113 713.567993,320.746552 711.403503,322.043884 
z"></path>
<path fill="#724938" opacity="1.000000" stroke="none" d="
M715.501099,311.764526 
	C714.773926,314.582001 712.321472,314.846558 709.450195,315.052948 
	C709.075745,315.076935 709.004456,314.994934 708.970032,314.952942 
	C708.637390,313.502808 709.756409,313.615540 710.857300,313.228699 
	C712.483643,312.627441 713.816467,312.191284 715.501099,311.764526 
z"></path>
<path fill="#E7E7E7" opacity="1.000000" stroke="none" d="
M752.407227,327.450989 
	C751.146729,327.266144 750.151184,326.989441 749.044434,326.330414 
	C750.051453,325.257446 751.169678,324.566803 752.614258,323.811768 
	C753.236450,324.395355 753.532227,325.043396 753.912048,326.038086 
	C753.554749,326.709564 753.113464,327.034363 752.407227,327.450989 
z"></path>
<path fill="#724938" opacity="1.000000" stroke="none" d="
M679.545898,320.884705 
	C679.321167,323.286865 677.833313,324.502258 675.093628,324.065369 
	C675.969238,322.293182 677.674805,321.733459 679.545898,320.884705 
z"></path>
<path fill="#727272" opacity="1.000000" stroke="none" d="
M147.632629,235.960266 
	C147.900650,237.439819 147.900650,238.957581 147.900650,241.194946 
	C146.622498,239.282410 146.316376,237.942062 146.628998,236.249084 
	C147.003693,236.006744 147.184143,236.002609 147.632629,235.960266 
z"></path>
<path fill="#727272" opacity="1.000000" stroke="none" d="
M110.675926,237.006470 
	C111.139168,238.394226 110.821365,239.693268 109.250046,241.393356 
	C109.250046,239.663025 109.250046,238.524475 109.394363,237.043640 
	C109.887672,236.713318 110.187820,236.840530 110.675926,237.006470 
z"></path>
<path fill="#724938" opacity="1.000000" stroke="none" d="
M706.396851,325.117859 
	C706.313843,322.550323 708.306824,322.272430 710.709961,322.055450 
	C710.047546,323.668884 708.328735,324.270325 706.396851,325.117859 
z"></path>
<path fill="#724938" opacity="1.000000" stroke="none" d="
M683.670654,318.036987 
	C683.840454,320.078613 682.668518,321.005890 680.259644,320.914185 
	C680.738037,319.571442 681.899231,318.648499 683.670654,318.036987 
z"></path>
<path fill="#1C0B0A" opacity="1.000000" stroke="none" d="
M728.865723,338.354370 
	C729.752502,338.048523 730.457764,337.956177 731.514465,337.817139 
	C731.899780,338.063568 731.933594,338.356720 731.982178,339.095703 
	C730.640259,339.778229 729.283630,340.014893 727.393066,340.046722 
	C727.467468,339.417206 728.075806,338.992554 728.865723,338.354370 
z"></path>
<path fill="#724938" opacity="1.000000" stroke="none" d="
M719.622253,308.977112 
	C719.800659,311.059204 718.209534,311.509857 716.160889,311.810852 
	C716.317749,310.037628 717.913940,309.674469 719.622253,308.977112 
z"></path>
<path fill="#727272" opacity="1.000000" stroke="none" d="
M354.667145,194.035309 
	C355.129913,195.588104 354.439758,196.957260 353.019409,199.592239 
	C353.019409,197.084290 353.019409,195.816666 353.165405,194.174362 
	C353.673218,193.907288 354.035065,194.014877 354.667145,194.035309 
z"></path>
<path fill="#727272" opacity="1.000000" stroke="none" d="
M107.794922,176.251038 
	C108.121407,176.447632 108.131187,176.688965 108.038940,177.278076 
	C106.899269,178.227554 105.921715,179.086624 104.552078,178.489090 
	C105.060600,177.034286 106.537460,177.032135 107.794922,176.251038 
z"></path>
<path fill="#B3B3B3" opacity="1.000000" stroke="none" d="
M686.277588,302.849304 
	C685.928711,302.692566 685.904175,302.521484 685.928894,302.095947 
	C686.661804,300.498840 688.074219,300.747040 689.213745,300.298401 
	C689.186829,302.087158 687.429565,301.972198 686.277588,302.849304 
z"></path>
<path fill="#503023" opacity="1.000000" stroke="none" d="
M705.523010,329.135071 
	C705.187317,329.162354 705.027588,328.707825 704.977905,328.473267 
	C706.302490,328.096527 707.488953,326.760376 709.073914,327.538574 
	C708.516357,329.253235 707.019226,328.828918 705.523010,329.135071 
z"></path>
<path fill="#727272" opacity="1.000000" stroke="none" d="
M723.083862,179.979935 
	C724.820312,179.651840 725.932373,180.580322 727.089600,181.930420 
	C725.828674,181.918518 724.546936,181.423172 723.134033,180.623764 
	C723.002808,180.319702 722.937012,180.021652 723.083862,179.979935 
z"></path>
<path fill="#503023" opacity="1.000000" stroke="none" d="
M746.048218,203.257034 
	C745.880371,204.340607 746.098206,206.079788 744.540283,205.439484 
	C743.576538,205.043381 744.289978,203.835114 745.177490,202.957550 
	C745.569519,202.887177 745.720764,202.974976 746.048218,203.257034 
z"></path>
<path fill="#727272" opacity="1.000000" stroke="none" d="
M127.850006,238.269135 
	C127.324020,237.154831 127.481232,235.444946 128.300354,235.317108 
	C129.560913,235.120331 128.708420,236.706268 128.964859,237.762543 
	C128.893509,238.083847 128.451111,237.963333 128.451111,237.963333 
	C128.451111,237.963333 128.075455,238.226334 127.850006,238.269135 
z"></path>
<path fill="#060606" opacity="1.000000" stroke="none" d="
M710.756226,313.044861 
	C710.537964,313.531921 709.925049,314.000214 709.123901,314.689697 
	C708.523438,314.973022 708.111267,315.035156 707.390869,315.150879 
	C707.149536,312.933929 708.774536,313.008545 710.756226,313.044861 
z"></path>
<path fill="#727272" opacity="1.000000" stroke="none" d="
M775.636169,200.070190 
	C776.124451,200.246399 776.330872,200.575684 776.819214,201.005646 
	C776.533630,202.117844 775.709106,202.813507 774.311890,203.084778 
	C773.885742,201.810669 774.701355,201.055374 775.636169,200.070190 
z"></path>
<path fill="#724938" opacity="1.000000" stroke="none" d="
M688.534790,314.857727 
	C688.936035,316.400299 688.076660,316.986298 686.244995,316.903992 
	C686.263550,315.747101 687.196350,315.269287 688.534790,314.857727 
z"></path>
<path fill="#503023" opacity="1.000000" stroke="none" d="
M727.340820,182.023804 
	C728.360413,182.109665 729.708740,181.961823 729.231384,183.261337 
	C728.948730,184.030762 727.946289,183.229691 727.218994,182.636780 
	C727.110352,182.413849 727.155884,182.044540 727.340820,182.023804 
z"></path>
<path fill="#1C0B0A" opacity="1.000000" stroke="none" d="
M700.517822,313.045868 
	C700.519409,312.029877 701.307556,311.404114 702.538940,310.816895 
	C702.974915,312.156006 702.285706,312.894714 700.517822,313.045868 
z"></path>
<path fill="#724938" opacity="1.000000" stroke="none" d="
M672.678711,325.011688 
	C672.884094,326.434875 672.018555,327.011017 670.261719,326.935547 
	C670.443726,325.925415 671.323364,325.386200 672.678711,325.011688 
z"></path>
<path fill="#724938" opacity="1.000000" stroke="none" d="
M717.408569,318.080627 
	C717.074036,316.614899 717.919006,316.015717 719.702515,316.038483 
	C719.281921,316.706848 718.499023,317.364594 717.408569,318.080627 
z"></path>
<path fill="#B3B3B3" opacity="1.000000" stroke="none" d="
M884.964966,139.230469 
	C885.357666,139.003891 885.547607,138.991898 886.002869,139.085632 
	C886.140137,140.011932 885.762085,140.860687 884.899841,140.755569 
	C883.875793,140.630737 884.604858,139.919922 884.964966,139.230469 
z"></path>
<path fill="#724938" opacity="1.000000" stroke="none" d="
M721.390686,315.060211 
	C721.107422,314.138306 721.365234,313.328064 722.853027,313.183777 
	C723.066467,314.110718 722.525391,314.675446 721.390686,315.060211 
z"></path>
<path fill="#62463C" opacity="1.000000" stroke="none" d="
M639.768799,127.386276 
	C639.739929,128.352875 639.357422,129.060532 638.127930,128.139740 
	C638.487000,127.716652 638.992371,127.505508 639.768799,127.386276 
z"></path>
<path fill="#62463C" opacity="1.000000" stroke="none" d="
M903.594849,132.977844 
	C904.061035,131.988495 904.528442,131.102585 905.314636,131.694595 
	C905.900146,132.135498 905.179443,132.697128 904.442444,133.125275 
	C903.960266,133.247375 903.726379,133.282455 903.594849,132.977844 
z"></path>
<path fill="#1C0B0A" opacity="1.000000" stroke="none" d="
M690.719910,311.981720 
	C690.735596,312.440247 690.481323,312.890533 690.089172,313.569214 
	C689.797546,313.986847 689.643860,314.176117 689.219910,314.118866 
	C688.950562,313.660217 688.951416,313.448059 688.965576,312.914185 
	C689.469238,312.386169 689.959595,312.179840 690.719910,311.981720 
z"></path>
<path fill="#1C0B0A" opacity="1.000000" stroke="none" d="
M712.778564,101.576393 
	C712.240967,101.787575 711.503967,101.809891 710.411743,101.728172 
	C710.843872,100.974487 711.683960,100.887642 712.778564,101.576393 
z"></path>
<path fill="#5C3D32" opacity="1.000000" stroke="none" d="
M720.619690,102.155228 
	C720.193970,102.993790 719.334717,103.117508 718.197754,102.322731 
	C718.749695,102.098312 719.501770,102.080513 720.619690,102.155228 
z"></path>
<path fill="#62463C" opacity="1.000000" stroke="none" d="
M650.642334,125.896118 
	C650.347778,126.867851 649.381531,126.999245 647.940369,126.834229 
	C648.462219,126.482094 649.370361,126.186180 650.642334,125.896118 
z"></path>
<path fill="#503023" opacity="1.000000" stroke="none" d="
M766.724121,292.178345 
	C766.968018,292.015533 767.452637,292.012115 767.694336,292.014252 
	C767.474060,292.615356 767.011963,293.214355 766.273804,293.905914 
	C766.158508,293.446014 766.319336,292.893585 766.724121,292.178345 
z"></path>
<path fill="#62463C" opacity="1.000000" stroke="none" d="
M638.020569,133.356339 
	C638.664795,133.207870 639.571838,133.293900 640.744995,133.594360 
	C640.101807,133.736145 639.192627,133.663498 638.020569,133.356339 
z"></path>
<path fill="#62463C" opacity="1.000000" stroke="none" d="
M904.068115,133.070312 
	C903.758911,133.849228 903.222107,134.820938 902.444275,134.220474 
	C901.819885,133.738464 902.620544,133.158569 903.441772,132.739334 
	C903.697083,132.638184 903.942017,132.928360 904.068115,133.070312 
z"></path>
<path fill="#724938" opacity="1.000000" stroke="none" d="
M685.554199,316.862915 
	C685.873535,317.021912 685.907959,317.220367 685.964722,317.720428 
	C685.544189,318.018860 685.101196,318.015686 684.325928,318.002411 
	C684.418823,317.628967 684.843994,317.265625 685.554199,316.862915 
z"></path>
<path fill="#62463C" opacity="1.000000" stroke="none" d="
M821.625488,145.615784 
	C821.670715,145.447403 821.864075,145.302719 821.949463,145.350616 
	C822.332458,145.565521 822.243347,145.716217 821.625488,145.615784 
z"></path>
<path fill="#727272" opacity="1.000000" stroke="none" d="
M883.023315,147.462738 
	C882.559631,147.764496 882.225342,147.755844 881.391724,147.796478 
	C881.442078,146.950256 881.916077,145.808640 883.023315,147.462738 
z"></path>
<path fill="#B5B5B5" opacity="1.000000" stroke="none" d="
M778.463928,228.397079 
	C778.171875,228.862900 777.715454,229.179123 777.258972,229.495331 
	C777.315857,229.061371 777.372803,228.627411 777.693115,228.079117 
	C777.956543,227.964767 778.299561,228.247482 778.463928,228.397079 
z"></path>
<path fill="#503023" opacity="1.000000" stroke="none" d="
M766.001221,294.001434 
	C765.887695,294.406128 765.772949,294.809387 765.658142,295.212616 
	C764.986511,294.916321 765.369080,294.570099 765.804688,294.114502 
	C765.997681,293.998474 766.000000,294.000000 766.001221,294.001434 
z"></path>
<path fill="#62463C" opacity="1.000000" stroke="none" d="
M656.616943,124.846588 
	C656.622559,125.553566 656.157715,125.924850 655.182861,125.289642 
	C655.435120,125.021736 655.862854,124.942459 656.616943,124.846588 
z"></path>
<path fill="#503023" opacity="1.000000" stroke="none" d="
M742.477661,209.424683 
	C742.521362,209.395355 742.433960,209.454025 742.477661,209.424683 
z"></path>
<path fill="#727272" opacity="1.000000" stroke="none" d="
M92.893379,300.234772 
	C93.160782,300.343292 93.245842,300.707916 93.125504,300.851318 
	C92.616440,300.819763 91.716202,300.868164 92.893379,300.234772 
z"></path>
<path fill="#503023" opacity="1.000000" stroke="none" d="
M814.964478,86.758522 
	C814.792114,86.773567 814.520874,86.539055 814.169800,86.041191 
	C814.348633,86.021545 814.607178,86.265259 814.964478,86.758522 
z"></path>
<path fill="#503023" opacity="1.000000" stroke="none" d="
M743.419067,207.380554 
	C743.510925,207.298767 743.550537,207.587921 743.550537,207.587921 
	C743.550537,207.587921 743.327271,207.462326 743.419067,207.380554 
z"></path>
<path fill="#724938" opacity="1.000000" stroke="none" d="
M669.689270,326.960571 
	C669.750122,327.164642 669.549927,327.436432 669.104492,327.790802 
	C669.048950,327.591675 669.238586,327.309967 669.689270,326.960571 
z"></path>
<path fill="#62463C" opacity="1.000000" stroke="none" d="
M815.387085,228.139557 
	C816.040466,227.629745 816.055359,228.092072 815.957764,228.672714 
	C815.697327,228.672287 815.555603,228.547104 815.387085,228.139557 
z"></path>
<path fill="#62463C" opacity="1.000000" stroke="none" d="
M643.741333,127.078339 
	C643.983215,127.093788 643.678040,127.442642 643.678040,127.442642 
	C643.678040,127.442642 643.238892,127.427284 643.135132,127.307922 
	C643.031433,127.188560 643.499512,127.062889 643.741333,127.078339 
z"></path>
<path fill="#727272" opacity="1.000000" stroke="none" d="
M773.971069,202.967300 
	C773.882385,203.174332 773.812927,203.400589 773.743408,203.626862 
	C773.719299,203.469284 773.695190,203.311691 773.851807,203.087402 
	C774.032532,203.020691 773.990234,202.986526 773.971069,202.967300 
z"></path>
<path fill="#503023" opacity="1.000000" stroke="none" d="
M713.958374,297.948700 
	C714.070740,297.828674 714.241394,297.041351 714.214722,297.991577 
	C714.070923,298.059265 713.993958,297.987457 713.958374,297.948700 
z"></path>
<path fill="#503023" opacity="1.000000" stroke="none" d="
M736.976929,323.966217 
	C737.108765,323.795624 737.327637,322.982025 737.276855,324.025940 
	C737.116699,324.101990 737.021484,324.013519 736.976929,323.966217 
z"></path>
<path fill="#503023" opacity="1.000000" stroke="none" d="
M740.492310,321.509460 
	C740.466614,321.518707 740.518066,321.500214 740.492310,321.509460 
z"></path>
<path fill="#62463C" opacity="1.000000" stroke="none" d="
M776.062012,276.778503 
	C775.849182,276.803986 775.711975,276.615570 775.620422,276.407135 
	C775.604919,276.371704 775.785583,276.250153 776.058350,276.128510 
	C776.241028,276.088623 776.152954,276.557800 776.062012,276.778503 
z"></path>
<path fill="#724938" opacity="1.000000" stroke="none" d="
M720.274231,315.981750 
	C720.225708,315.796234 720.423889,315.524017 720.857788,315.149628 
	C720.902649,315.329956 720.711731,315.612488 720.274231,315.981750 
z"></path>
<path fill="#503023" opacity="1.000000" stroke="none" d="
M919.599487,305.991760 
	C919.816895,306.223846 919.684448,306.513336 919.207092,306.868561 
	C919.016724,306.653076 919.145874,306.358032 919.599487,305.991760 
z"></path>
<path fill="#5C3D32" opacity="1.000000" stroke="none" d="
M717.265625,108.886536 
	C717.286194,108.693329 717.577759,108.483200 718.148438,108.274475 
	C718.130493,108.473793 717.833496,108.671707 717.265625,108.886536 
z"></path>
<path fill="#724938" opacity="1.000000" stroke="none" d="
M688.889709,314.128174 
	C689.117432,313.870636 689.285156,313.868927 689.702026,313.832397 
	C689.749878,314.100220 689.548523,314.402802 689.087280,314.807373 
	C688.828247,314.734192 688.828979,314.559082 688.889709,314.128174 
z"></path>
<path fill="#7A4C38" opacity="1.000000" stroke="none" d="
M906.994995,144.991547 
	C906.909119,145.016068 906.830261,145.050232 906.886536,145.050323 
	C907.021606,145.016235 907.002136,145.001190 906.994995,144.991547 
z"></path>
<path fill="#060606" opacity="1.000000" stroke="none" d="
M979.056885,294.607330 
	C976.538513,296.728088 974.363831,298.932220 970.712769,299.080078 
	C971.665710,292.688110 971.282959,291.717560 965.692749,288.866547 
	C961.835083,286.899170 960.192322,283.803589 960.602539,279.257141 
	C960.783630,277.944122 960.800598,276.951721 960.814514,275.959290 
	C960.921631,268.296478 962.695679,266.960388 970.068115,269.270569 
	C973.546692,270.360596 976.721313,272.093414 979.411133,275.132935 
	C979.588928,275.702454 979.588074,275.983459 979.165649,276.266296 
	C977.091187,275.911804 975.438232,275.555511 973.422119,275.209656 
	C973.058472,275.797028 971.168701,274.758698 971.971680,276.362793 
	C979.036011,281.939270 981.167114,287.030914 979.056885,294.607330 
z"></path>
<path fill="#B7B7B7" opacity="1.000000" stroke="none" d="
M960.424561,279.070312 
	C961.556335,281.111267 962.206604,283.351105 963.188843,285.434326 
	C963.709290,286.538177 964.383484,287.776001 965.940002,288.007202 
	C971.381348,288.815460 973.257507,292.887939 970.533325,298.725433 
	C970.305847,299.070679 970.017883,298.941650 969.868530,298.889465 
	C970.946838,295.048248 970.791992,293.141693 965.615295,292.644440 
	C958.431274,291.954376 956.859497,289.223999 960.424561,279.070312 
z"></path>
<path fill="#020202" opacity="1.000000" stroke="none" d="
M947.114868,234.585205 
	C946.159058,237.161255 945.746582,234.859726 945.025452,234.187988 
	C945.937866,232.725021 946.342651,233.829132 947.114868,234.585205 
z"></path>
<path fill="#B3B3B3" opacity="1.000000" stroke="none" d="
M972.099976,276.214783 
	C971.198975,276.284943 970.360657,276.092621 970.781860,275.366669 
	C970.981018,275.023376 971.924744,275.112061 972.795044,275.112549 
	C972.859253,275.454956 972.659668,275.689819 972.099976,276.214783 
z"></path>
<path fill="#62463C" opacity="1.000000" stroke="none" d="
M858.521118,156.084610 
	C859.185486,156.663681 859.308960,157.402695 858.709167,157.809967 
	C858.139038,158.197037 858.035889,157.454422 857.831909,156.785889 
	C857.963745,156.369110 858.103271,156.244537 858.521118,156.084610 
z"></path>
<path fill="#060606" opacity="1.000000" stroke="none" d="
M979.376099,275.630798 
	C980.004578,275.874237 980.853088,276.564636 980.758057,276.738159 
	C980.373962,277.439178 979.677551,277.040924 978.917603,276.544006 
	C978.883545,276.125427 979.022949,275.982788 979.376099,275.630798 
z"></path>
<path fill="#5C3D32" opacity="1.000000" stroke="none" d="
M948.046753,299.729797 
	C947.483215,300.531555 946.762878,300.069031 945.743408,299.279968 
	C946.431580,297.930237 947.002808,299.008759 948.046753,299.729797 
z"></path>
<path fill="#020202" opacity="1.000000" stroke="none" d="
M921.995605,176.004532 
	C921.265198,175.936890 920.699402,175.689194 920.133545,175.441483 
	C920.735779,175.315872 921.338013,175.190277 922.206665,175.257507 
	C922.473145,175.450348 922.160095,175.824478 921.995605,176.004532 
z"></path>
<path fill="#B3B3B3" opacity="1.000000" stroke="none" d="
M956.009583,250.994232 
	C956.269104,251.328247 956.757019,251.945572 956.710022,251.989426 
	C956.016296,252.636444 956.126587,251.815872 955.942993,251.282684 
	C955.950256,251.046356 955.989136,251.010834 956.009583,250.994232 
z"></path>
<path fill="#020202" opacity="1.000000" stroke="none" d="
M852.937622,182.880142 
	C853.195068,181.972626 853.881042,181.848312 854.621033,182.225067 
	C854.672607,182.251328 854.419556,182.875885 854.073608,183.404694 
	C853.636108,183.433289 853.433228,183.279419 852.937622,182.880142 
z"></path>
<path fill="#B7B7B7" opacity="1.000000" stroke="none" d="
M889.994385,220.300385 
	C890.370483,220.412827 890.738525,220.828217 891.171448,221.520874 
	C891.236328,221.798111 891.062744,221.943069 890.975098,222.016510 
	C890.587097,221.594437 890.286743,221.098892 889.994385,220.300385 
z"></path>
<path fill="#5C3D32" opacity="1.000000" stroke="none" d="
M945.341309,298.255402 
	C944.869934,298.415161 944.729553,298.276306 944.309265,298.041809 
	C944.029297,297.946167 944.005737,297.529419 944.012207,297.320801 
	C943.876953,296.895294 943.735352,296.678406 943.868042,296.186401 
	C945.050232,296.295532 945.420410,297.081970 945.341309,298.255402 
z"></path>
<path fill="#5C3D32" opacity="1.000000" stroke="none" d="
M951.874634,305.207214 
	C951.079651,304.953186 950.861450,304.737854 950.918396,304.156799 
	C951.796875,302.954834 952.181946,304.028534 952.893860,304.560059 
	C952.810974,305.048584 952.554871,305.224609 951.874634,305.207214 
z"></path>
<path fill="#020202" opacity="1.000000" stroke="none" d="
M951.738037,305.370483 
	C951.722656,305.019348 951.994873,305.024902 952.667114,304.951477 
	C953.365173,305.064117 953.663269,305.255676 954.021118,305.711487 
	C953.202576,307.490356 952.674438,306.109650 951.738037,305.370483 
z"></path>
<path fill="#020202" opacity="1.000000" stroke="none" d="
M888.644836,124.310959 
	C888.689941,123.358391 889.228821,122.905289 889.731812,123.319679 
	C890.010559,123.549377 889.789734,124.385414 889.564697,125.134682 
	C889.175720,125.100784 889.016174,124.880371 888.644836,124.310959 
z"></path>
<path fill="#B7B7B7" opacity="1.000000" stroke="none" d="
M889.998779,220.001266 
	C889.862427,219.852142 889.727295,219.701736 889.592163,219.551331 
	C889.692993,219.597870 889.793823,219.644409 889.948547,219.844177 
	C890.002441,219.997437 890.000000,220.000000 889.998779,220.001266 
z"></path>
<path fill="#5C3D32" opacity="1.000000" stroke="none" d="
M951.187012,303.588379 
	C950.448547,304.054840 950.065979,303.802734 949.938354,302.822266 
	C950.421326,302.689148 950.871216,302.947784 951.187012,303.588379 
z"></path>
<path fill="#020202" opacity="1.000000" stroke="none" d="
M943.873718,295.664520 
	C944.121582,296.111298 944.100708,296.311371 944.049194,296.811829 
	C943.676941,296.900970 943.335327,296.689758 943.009644,296.169769 
	C943.218750,295.713257 943.411865,295.565552 943.873718,295.664520 
z"></path>
<path fill="#030303" opacity="1.000000" stroke="none" d="
M290.079285,207.731903 
	C289.366180,209.650360 288.950378,211.257339 287.288757,212.125290 
	C285.438599,213.091721 283.349792,213.726791 281.583649,212.857666 
	C280.181488,212.167633 280.937500,210.131317 280.979187,208.711517 
	C281.237152,199.925507 281.559692,191.141113 281.920746,182.358658 
	C281.999878,180.433533 280.972992,177.893967 284.677429,177.882233 
	C287.895660,177.872040 290.403870,178.708755 290.982239,182.053207 
	C291.429199,184.638107 291.337402,187.349182 291.218536,189.992188 
	C290.958557,195.773056 291.725616,201.621674 290.079285,207.731903 
z"></path>
<path fill="#030303" opacity="1.000000" stroke="none" d="
M504.965515,260.997131 
	C504.968689,236.548996 505.089203,212.599670 504.200378,188.659531 
	C504.096130,185.850739 504.282227,183.012894 504.572784,180.213318 
	C504.817596,177.854401 506.104248,176.060562 508.677673,175.972992 
	C511.350830,175.882019 513.640198,176.734146 514.339661,179.739182 
	C514.637939,181.020691 514.989136,182.322311 515.036682,183.625000 
	C516.154114,214.210724 516.520386,244.805603 516.015259,275.408630 
	C515.993713,276.711304 515.766724,278.040527 515.428223,279.301727 
	C514.749817,281.829285 513.178772,283.209381 510.380707,283.127319 
	C507.531311,283.043640 506.178497,281.405731 505.682434,278.905670 
	C504.539978,273.147583 505.119415,267.304169 504.965515,260.997131 
z"></path>
<path fill="#060606" opacity="1.000000" stroke="none" d="
M576.714111,209.164291 
	C576.317993,201.079147 575.933411,193.456512 575.585022,185.832230 
	C575.522949,184.474792 574.179626,182.574417 576.037903,181.919174 
	C577.428528,181.428802 579.448608,181.737091 580.828735,182.418350 
	C583.323547,183.649857 584.563843,186.064316 585.069397,188.801453 
	C586.283997,195.378143 586.168701,202.020935 585.933716,208.654587 
	C585.849548,211.031876 584.985229,213.240524 582.727966,214.493027 
	C578.686035,216.735748 576.838135,215.216003 576.714111,209.164291 
z"></path>
<path fill="#060606" opacity="1.000000" stroke="none" d="
M208.428467,237.308197 
	C208.956757,222.191513 208.844330,207.514221 210.688110,192.937988 
	C210.854065,191.626022 210.839447,190.210236 211.355637,189.039764 
	C212.580978,186.261215 214.580826,184.246353 217.936920,184.913849 
	C221.207306,185.564285 221.175018,188.252747 221.075867,190.806091 
	C220.546021,204.453201 219.836746,218.095459 219.491501,231.747025 
	C219.162964,244.738922 219.278473,257.741577 219.033386,270.736389 
	C218.973953,273.886780 219.596848,277.957123 214.594543,278.173096 
	C209.898727,278.375885 208.781372,275.019623 208.541229,271.252380 
	C207.830353,260.100250 208.044067,248.939301 208.428467,237.308197 
z"></path>
<path fill="#727272" opacity="1.000000" stroke="none" d="
M761.417297,131.927979 
	C762.184265,132.037613 762.940430,132.356232 762.923218,132.405518 
	C762.677307,133.111664 762.063660,133.219788 761.418396,133.083466 
	C760.765869,132.945602 760.158020,132.717941 761.417297,131.927979 
z"></path>
<path fill="#62463C" opacity="1.000000" stroke="none" d="
M725.175903,335.253357 
	C725.451416,334.367798 725.962341,334.047119 726.829712,334.875061 
	C726.523315,335.729919 726.009460,335.999390 725.175903,335.253357 
z"></path>
<path fill="#1C0B0A" opacity="1.000000" stroke="none" d="
M727.122314,340.150513 
	C726.472046,340.856781 725.726196,341.392761 724.804993,340.562622 
	C725.294922,340.334564 725.784851,340.106506 726.566895,339.860138 
	C726.859131,339.841827 727.035278,340.046967 727.122314,340.150513 
z"></path>
<path fill="#151515" opacity="1.000000" stroke="none" d="
M797.909729,305.553406 
	C794.809143,305.884796 792.459534,307.588562 789.412476,308.136597 
	C787.763977,307.334930 788.738831,306.696442 789.198669,306.213074 
	C794.838379,300.285278 799.083191,293.508270 802.080200,285.778168 
	C803.111877,292.746826 801.802795,299.231567 797.909729,305.553406 
z"></path>
<path fill="#62463C" opacity="1.000000" stroke="none" d="
M825.035889,298.772644 
	C824.278931,300.098602 823.960449,299.390656 823.929993,298.776306 
	C823.879150,297.749481 824.436584,297.856659 825.035889,298.772644 
z"></path>
<path fill="#151515" opacity="1.000000" stroke="none" d="
M788.733276,307.649139 
	C789.082214,309.044250 788.267700,309.034790 787.286255,309.389893 
	C786.598328,308.278595 787.527710,307.793732 788.733276,307.649139 
z"></path>
<path fill="#020202" opacity="1.000000" stroke="none" d="
M799.903809,188.905151 
	C800.050049,188.579803 800.362915,188.421036 800.675659,188.262268 
	C800.713806,188.516342 800.751953,188.770416 800.597290,189.214111 
	C800.404541,189.403748 800.070374,189.071732 799.903809,188.905151 
z"></path>
<path fill="#EAEAEA" opacity="1.000000" stroke="none" d="
M822.001221,169.001526 
	C821.908020,169.037964 821.813538,169.072876 821.858337,169.053040 
	C821.997559,168.998291 822.000000,169.000000 822.001221,169.001526 
z"></path>
<path fill="#724938" opacity="1.000000" stroke="none" d="
M693.351807,322.995422 
	C694.828613,321.542511 696.910156,320.511475 699.586670,319.942688 
	C699.103516,323.390717 696.277344,322.889954 693.351807,322.995422 
z"></path>
<path fill="#724938" opacity="1.000000" stroke="none" d="
M685.226257,326.257599 
	C686.094849,325.644287 687.171509,325.269897 688.593262,324.893616 
	C688.246338,326.466003 687.271851,327.423553 685.226257,326.257599 
z"></path>
<path fill="#724938" opacity="1.000000" stroke="none" d="
M689.274658,324.934540 
	C689.765747,324.384888 690.597778,323.857666 691.729004,323.281128 
	C691.789795,324.598236 690.879028,325.024353 689.274658,324.934540 
z"></path>
<path fill="#E7E7E7" opacity="1.000000" stroke="none" d="
M787.002197,302.998169 
	C786.514343,302.704895 786.024414,302.413422 785.534424,302.121979 
	C785.704224,301.923431 785.873962,301.724854 786.043762,301.526306 
	C786.335571,301.837311 786.627441,302.148315 786.957886,302.731476 
	C786.996582,303.003662 787.000000,303.000000 787.002197,302.998169 
z"></path>
<path fill="#020202" opacity="1.000000" stroke="none" d="
M771.991455,273.985657 
	C772.101685,273.753265 772.249695,273.560608 772.397705,273.367950 
	C772.423279,273.575439 772.448853,273.782898 772.291443,274.045837 
	C772.108459,274.101288 772.029297,274.025360 771.991455,273.985657 
z"></path>
<path fill="#E7E7E7" opacity="1.000000" stroke="none" d="
M807.530518,251.490082 
	C807.548157,251.529373 807.512939,251.450806 807.530518,251.490082 
z"></path>
<path fill="#1C0B0A" opacity="1.000000" stroke="none" d="
M691.002441,312.003815 
	C691.220642,311.796417 691.421692,311.565826 691.661072,311.386414 
	C691.716797,311.344635 691.903076,311.477051 692.029297,311.529297 
	C691.821716,311.680908 691.614136,311.832550 691.198242,311.987061 
	C690.989807,311.989929 690.999207,311.999268 691.002441,312.003815 
z"></path>
</svg>